<svg xmlns="http://www.w3.org/2000/svg" viewBox="0 0 147 50"><title>logo</title><path d="M21,7H0V50H10V35s22,2,22-15C32,8,21,7,21,7ZM10,27V15s12-2,12,6S10,27,10,27Z" fill="#2b4b8a"/><path d="M51,7C35,7,34,20,34,23c0,18,21,16,21,16l6-8s-1,1-8,1c-9,0-10-6-10-6H65S67,7,51,7ZM43,20s0-7,7-7c6,0,6,7,6,7Z" fill="#2b4b8b"/><path d="M80,31h5v7s-16,3-16-6a154.41,154.41,0,0,0-1-17L64,8h4V0H78V8h9l-5,7H78V28C78,29,79,31,80,31Z" fill="#2b4b8b"/><rect x="91" y="8" width="9" height="30" fill="#69bbf0"/><polygon points="104 8 114 8 119 16 125 8 135 8 125 23 135 38 125 38 120 30 114 38 104 38 114 23 104 8" fill="#69bbf0"/><circle cx="142" cy="34" r="5" fill="#2b4b8b"/></svg>