<svg width="18" height="16" viewBox="0 0 18 16" fill="none" xmlns="http://www.w3.org/2000/svg">
<path d="M16.5145 9.4375L17.9846 2.9375C18.0784 2.46875 17.7343 2 17.2339 2H4.97312L4.69162 0.625C4.59779 0.28125 4.28502 0 3.94096 0H0.75066C0.312775 0 0 0.34375 0 0.75V1.25C0 1.6875 0.312775 2 0.75066 2H2.90881L5.12951 12.75C4.59779 13.0625 4.25374 13.625 4.25374 14.25C4.25374 15.2188 5.03568 16 6.00528 16C6.9436 16 7.75682 15.2188 7.75682 14.25C7.75682 13.7812 7.53787 13.3438 7.2251 13H13.7621C13.4493 13.3438 13.2617 13.7812 13.2617 14.25C13.2617 15.2188 14.0436 16 15.0132 16C15.9515 16 16.7647 15.2188 16.7647 14.25C16.7647 13.5625 16.3581 12.9688 15.7639 12.6875L15.9202 11.9375C16.0453 11.4688 15.67 11 15.2009 11H6.81849L6.59955 10H15.7639C16.1079 10 16.4207 9.78125 16.5145 9.4375Z" fill="white"/>
</svg>
