<?xml version="1.0" encoding="UTF-8" standalone="no"?>
<!DOCTYPE svg PUBLIC "-//W3C//DTD SVG 1.1//EN" "http://www.w3.org/Graphics/SVG/1.1/DTD/svg11.dtd">
<svg width="100%" height="100%" viewBox="0 0 24 24" version="1.1" xmlns="http://www.w3.org/2000/svg" xmlns:xlink="http://www.w3.org/1999/xlink" xml:space="preserve" xmlns:serif="http://www.serif.com/" style="fill-rule:evenodd;clip-rule:evenodd;stroke-linejoin:round;stroke-miterlimit:2;">
    <path d="M21,3L3,3C1.343,3 0,4.343 0,6L0,18C0,19.657 1.343,21 3,21L21,21C22.657,21 24,19.657 24,18L24,6C24,4.343 22.657,3 21,3ZM22,11L22,18C22,18.552 21.552,19 21,19C21,19 3,19 3,19C2.448,19 2,18.552 2,18L2,11L22,11ZM22,9L2,9L2,6C2,5.448 2.448,5 3,5C3,5 21,5 21,5C21.552,5 22,5.448 22,6L22,9Z" style="fill:rgb(17,17,17);"/>
</svg>
