<svg width="11" height="15" viewBox="0 0 11 15" fill="none" xmlns="http://www.w3.org/2000/svg">
<path d="M9.1875 2.5C9.54297 2.5 9.84375 2.63672 10.1172 2.88281C10.3633 3.15625 10.5 3.45703 10.5 3.8125V13.4375C10.5 13.8203 10.3633 14.1211 10.1172 14.3672C9.84375 14.6406 9.54297 14.75 9.1875 14.75H1.3125C0.929688 14.75 0.628906 14.6406 0.382812 14.3672C0.109375 14.1211 0 13.8203 0 13.4375V3.8125C0 3.45703 0.109375 3.15625 0.382812 2.88281C0.628906 2.63672 0.929688 2.5 1.3125 2.5H3.5C3.5 2.03516 3.66406 1.625 4.01953 1.26953C4.34766 0.941406 4.75781 0.75 5.25 0.75C5.71484 0.75 6.125 0.941406 6.48047 1.26953C6.80859 1.625 7 2.03516 7 2.5H9.1875ZM2.625 12.3438C2.78906 12.3438 2.95312 12.2891 3.08984 12.1523C3.19922 12.043 3.28125 11.8789 3.28125 11.6875C3.28125 11.5234 3.19922 11.3594 3.08984 11.2227C2.95312 11.1133 2.78906 11.0312 2.625 11.0312C2.43359 11.0312 2.26953 11.1133 2.16016 11.2227C2.02344 11.3594 1.96875 11.5234 1.96875 11.6875C1.96875 11.8789 2.02344 12.043 2.16016 12.1523C2.26953 12.2891 2.43359 12.3438 2.625 12.3438ZM2.625 9.71875C2.78906 9.71875 2.95312 9.66406 3.08984 9.52734C3.19922 9.41797 3.28125 9.25391 3.28125 9.0625C3.28125 8.89844 3.19922 8.73438 3.08984 8.59766C2.95312 8.48828 2.78906 8.40625 2.625 8.40625C2.43359 8.40625 2.26953 8.48828 2.16016 8.59766C2.02344 8.73438 1.96875 8.89844 1.96875 9.0625C1.96875 9.25391 2.02344 9.41797 2.16016 9.52734C2.26953 9.66406 2.43359 9.71875 2.625 9.71875ZM2.625 7.09375C2.78906 7.09375 2.95312 7.03906 3.08984 6.90234C3.19922 6.79297 3.28125 6.62891 3.28125 6.4375C3.28125 6.27344 3.19922 6.10938 3.08984 5.97266C2.95312 5.86328 2.78906 5.78125 2.625 5.78125C2.43359 5.78125 2.26953 5.86328 2.16016 5.97266C2.02344 6.10938 1.96875 6.27344 1.96875 6.4375C1.96875 6.62891 2.02344 6.79297 2.16016 6.90234C2.26953 7.03906 2.43359 7.09375 2.625 7.09375ZM5.25 1.84375C5.05859 1.84375 4.89453 1.92578 4.78516 2.03516C4.64844 2.17188 4.59375 2.33594 4.59375 2.5C4.59375 2.69141 4.64844 2.85547 4.78516 2.96484C4.89453 3.10156 5.05859 3.15625 5.25 3.15625C5.41406 3.15625 5.57812 3.10156 5.71484 2.96484C5.82422 2.85547 5.90625 2.69141 5.90625 2.5C5.90625 2.33594 5.82422 2.17188 5.71484 2.03516C5.57812 1.92578 5.41406 1.84375 5.25 1.84375ZM8.75 11.9062V11.4688C8.75 11.4141 8.72266 11.3867 8.66797 11.332C8.61328 11.2773 8.58594 11.25 8.53125 11.25H4.59375C4.53906 11.25 4.48438 11.2773 4.42969 11.332C4.375 11.3867 4.375 11.4141 4.375 11.4688V11.9062C4.375 11.9609 4.375 12.0156 4.42969 12.0703C4.48438 12.125 4.53906 12.125 4.59375 12.125H8.53125C8.58594 12.125 8.61328 12.125 8.66797 12.0703C8.72266 12.0156 8.75 11.9609 8.75 11.9062ZM8.75 9.28125V8.84375C8.75 8.78906 8.72266 8.76172 8.66797 8.70703C8.61328 8.65234 8.58594 8.625 8.53125 8.625H4.59375C4.53906 8.625 4.48438 8.65234 4.42969 8.70703C4.375 8.76172 4.375 8.78906 4.375 8.84375V9.28125C4.375 9.33594 4.375 9.39062 4.42969 9.44531C4.48438 9.5 4.53906 9.5 4.59375 9.5H8.53125C8.58594 9.5 8.61328 9.5 8.66797 9.44531C8.72266 9.39062 8.75 9.33594 8.75 9.28125ZM8.75 6.65625V6.21875C8.75 6.16406 8.72266 6.13672 8.66797 6.08203C8.61328 6.02734 8.58594 6 8.53125 6H4.59375C4.53906 6 4.48438 6.02734 4.42969 6.08203C4.375 6.13672 4.375 6.16406 4.375 6.21875V6.65625C4.375 6.71094 4.375 6.76562 4.42969 6.82031C4.48438 6.875 4.53906 6.875 4.59375 6.875H8.53125C8.58594 6.875 8.61328 6.875 8.66797 6.82031C8.72266 6.76562 8.75 6.71094 8.75 6.65625Z" fill="#0E90D0"/>
</svg>
