<svg width="20" height="20" viewBox="0 0 20 20" fill="none" xmlns="http://www.w3.org/2000/svg">
<path d="M19.7408 17.2878L15.8318 13.3854C15.6363 13.2293 15.4018 13.1122 15.1672 13.1122H14.5418C15.5972 11.7463 16.2618 10.0293 16.2618 8.11707C16.2618 3.66829 12.5872 0 8.13088 0C3.63544 0 0 3.66829 0 8.11707C0 12.6049 3.63544 16.2341 8.13088 16.2341C10.0072 16.2341 11.7272 15.6098 13.1345 14.5171V15.1805C13.1345 15.4146 13.2127 15.6488 13.4081 15.8439L17.2781 19.7073C17.669 20.0976 18.2554 20.0976 18.6072 19.7073L19.7017 18.6146C20.0926 18.2634 20.0926 17.678 19.7408 17.2878ZM8.13088 13.1122C5.35543 13.1122 3.12726 10.8878 3.12726 8.11707C3.12726 5.38537 5.35543 3.12195 8.13088 3.12195C10.8672 3.12195 13.1345 5.38537 13.1345 8.11707C13.1345 10.8878 10.8672 13.1122 8.13088 13.1122Z" fill="white"/>
</svg>
