<svg width="30" height="31" viewBox="0 0 30 31" fill="none" xmlns="http://www.w3.org/2000/svg">
<path d="M29.8045 19.556L26.0977 15.5L29.8045 11.444C29.9865 11.2449 30.047 10.9649 29.9628 10.7101C29.8786 10.4553 29.663 10.264 29.397 10.2082L23.9784 9.07345L24.5574 3.64556C24.5858 3.37895 24.4677 3.11772 24.2477 2.96027C24.0277 2.80282 23.739 2.77276 23.4903 2.88193L18.4296 5.10194L15.6595 0.37501C15.5234 0.143069 15.2721 0 15.0002 0C14.7283 0 14.4767 0.143069 14.3409 0.37501L11.5708 5.10168L6.51007 2.88193C6.26161 2.77302 5.973 2.80282 5.7527 2.96027C5.53266 3.11772 5.41456 3.37895 5.44298 3.64556L6.02202 9.07345L0.603358 10.2082C0.337169 10.264 0.12156 10.4553 0.0376101 10.7101C-0.0466002 10.9649 0.0138852 11.2447 0.195863 11.444L3.90268 15.5L0.195602 19.556C0.0136245 19.7553 -0.0468609 20.0351 0.0373494 20.2899C0.121299 20.5447 0.337169 20.736 0.603097 20.7918L6.02176 21.9265L5.44271 27.3544C5.4143 27.6211 5.5324 27.8823 5.75244 28.0397C5.88488 28.1345 6.04183 28.1831 6.20009 28.1831C6.30515 28.1831 6.41074 28.1617 6.50981 28.1181L11.5705 25.8981L14.3403 30.6247C14.4764 30.8569 14.7278 30.9997 14.9997 30.9997C15.2716 30.9997 15.5232 30.8567 15.659 30.6247L18.4288 25.8981L23.4903 28.1183C23.5894 28.1617 23.695 28.1833 23.8 28.1833C23.9583 28.1833 24.1155 28.1348 24.2477 28.04C24.4677 27.8825 24.5858 27.6213 24.5574 27.3547L23.9784 21.9268L29.397 20.792C29.6632 20.7363 29.8788 20.5449 29.9628 20.2901C30.0467 20.0353 29.9865 19.7553 29.8045 19.556ZM23.2127 20.5529C22.9613 20.6055 22.7658 20.7748 22.6714 20.9908C22.4918 21.146 22.3888 21.3815 22.4157 21.6335L22.905 26.2189L18.6296 24.3436C18.3949 24.2406 18.1358 24.2642 17.9304 24.3844C17.6926 24.406 17.4686 24.537 17.3401 24.7563L15.0002 28.7494L12.66 24.7563C12.5315 24.537 12.3078 24.4062 12.07 24.3844C11.8649 24.2642 11.6055 24.2406 11.3708 24.3436L7.09538 26.2189L7.58473 21.6335C7.61159 21.3818 7.50861 21.1462 7.32924 20.9908C7.23486 20.7745 7.03932 20.6053 6.78799 20.5526L2.20987 19.5943L5.3413 16.1678C5.51311 15.9796 5.57046 15.7294 5.5178 15.5C5.57046 15.2706 5.51311 15.0202 5.3413 14.8322L2.20987 11.4057L6.78773 10.4471C7.03906 10.3945 7.2346 10.2252 7.32897 10.0092C7.50834 9.85404 7.61133 9.6185 7.58447 9.36653L7.09538 4.78087L11.3708 6.65618C11.6057 6.75918 11.8651 6.73555 12.0703 6.61508C12.3078 6.59325 12.5318 6.46251 12.66 6.24341L14.9999 2.25032L17.3398 6.24341C17.4684 6.46276 17.6923 6.59376 17.9301 6.61534C18.1353 6.73555 18.3947 6.75918 18.6293 6.65618L22.9045 4.78087L22.4154 9.36627C22.3885 9.61799 22.4915 9.85353 22.6709 10.0089C22.7653 10.2252 22.9608 10.3945 23.2121 10.4471L27.7897 11.4057L24.6583 14.8322C24.4865 15.0204 24.4291 15.2706 24.4818 15.5C24.4291 15.7294 24.4865 15.9798 24.6583 16.1678L27.7897 19.5943L23.2127 20.5529Z" fill="#111111"/>
</svg>
