<svg width="18" height="15" viewBox="0 0 18 15" fill="none" xmlns="http://www.w3.org/2000/svg">
<path d="M17.0625 10.375C17.1719 10.375 17.2812 10.4297 17.3633 10.5117C17.4453 10.5938 17.5 10.7031 17.5 10.8125V11.6875C17.5 11.8242 17.4453 11.9336 17.3633 12.0156C17.2812 12.0977 17.1719 12.125 17.0625 12.125H15.75C15.75 12.8633 15.4766 13.4922 14.9844 13.9844C14.4648 14.5039 13.8359 14.75 13.125 14.75C12.3867 14.75 11.7578 14.5039 11.2656 13.9844C10.7461 13.4922 10.5 12.8633 10.5 12.125H7C7 12.8633 6.72656 13.4922 6.23438 13.9844C5.71484 14.5039 5.08594 14.75 4.375 14.75C3.63672 14.75 3.00781 14.5039 2.51562 13.9844C1.99609 13.4922 1.75 12.8633 1.75 12.125H1.3125C0.929688 12.125 0.628906 12.0156 0.382812 11.7422C0.109375 11.4961 0 11.1953 0 10.8125V2.0625C0 1.70703 0.109375 1.40625 0.382812 1.13281C0.628906 0.886719 0.929688 0.75 1.3125 0.75H10.0625C10.418 0.75 10.7188 0.886719 10.9922 1.13281C11.2383 1.40625 11.375 1.70703 11.375 2.0625V3.375H12.5781C12.9336 3.375 13.2344 3.51172 13.5078 3.75781L16.2422 6.49219C16.4883 6.76562 16.625 7.06641 16.625 7.42188V10.375H17.0625ZM4.375 13.4375C4.73047 13.4375 5.03125 13.3281 5.30469 13.0547C5.55078 12.8086 5.6875 12.5078 5.6875 12.125C5.6875 11.7695 5.55078 11.4688 5.30469 11.1953C5.03125 10.9492 4.73047 10.8125 4.375 10.8125C3.99219 10.8125 3.69141 10.9492 3.44531 11.1953C3.17188 11.4688 3.0625 11.7695 3.0625 12.125C3.0625 12.5078 3.17188 12.8086 3.44531 13.0547C3.69141 13.3281 3.99219 13.4375 4.375 13.4375ZM13.125 13.4375C13.4805 13.4375 13.7812 13.3281 14.0547 13.0547C14.3008 12.8086 14.4375 12.5078 14.4375 12.125C14.4375 11.7695 14.3008 11.4688 14.0547 11.1953C13.7812 10.9492 13.4805 10.8125 13.125 10.8125C12.7422 10.8125 12.4414 10.9492 12.1953 11.1953C11.9219 11.4688 11.8125 11.7695 11.8125 12.125C11.8125 12.5078 11.9219 12.8086 12.1953 13.0547C12.4414 13.3281 12.7422 13.4375 13.125 13.4375ZM15.3125 7.75V7.42188L12.5781 4.6875H11.375V7.75H15.3125Z" fill="#0E90D0"/>
</svg>
