<?xml version="1.0" encoding="UTF-8" standalone="no"?>
<!DOCTYPE svg PUBLIC "-//W3C//DTD SVG 1.1//EN" "http://www.w3.org/Graphics/SVG/1.1/DTD/svg11.dtd">
<svg width="100%" height="100%" viewBox="0 0 24 24" version="1.1" xmlns="http://www.w3.org/2000/svg" xmlns:xlink="http://www.w3.org/1999/xlink" xml:space="preserve" xmlns:serif="http://www.serif.com/" style="fill-rule:evenodd;clip-rule:evenodd;stroke-linejoin:round;stroke-miterlimit:2;">
    <path d="M2.337,17C2.121,17.455 2,17.963 2,18.5C2,20.433 3.567,22 5.5,22C7.433,22 9,20.433 9,18.5C9,17.963 8.879,17.455 8.663,17L15.337,17C15.121,17.455 15,17.963 15,18.5C15,20.433 16.567,22 18.5,22C20.433,22 22,20.433 22,18.5C22,17.963 21.879,17.455 21.663,17L23,17C23.552,17 24,16.552 24,16L24,11C24,10.735 23.895,10.48 23.707,10.293L20.707,7.293C20.52,7.105 20.265,7 20,7L17.001,7L17.001,3C17.001,2.448 16.553,2 16.001,2L1.001,2C0.448,2 0.001,2.448 0.001,3L0.001,16C0.001,16.552 0.448,17 1.001,17L2.337,17ZM5.5,20C4.672,20 4,19.328 4,18.5C4,17.672 4.672,17 5.5,17C6.328,17 7,17.672 7,18.5C7,19.328 6.328,20 5.5,20ZM18.5,20C17.672,20 17,19.328 17,18.5C17,17.672 17.672,17 18.5,17C19.328,17 20,17.672 20,18.5C20,19.328 19.328,20 18.5,20ZM17.001,9L19.586,9C19.586,9 22,11.414 22,11.414C22,11.414 22,15 22,15L18.502,15L17.001,15L17.001,9ZM15.001,7.962L15.001,4L2.001,4C2.001,4 2.001,15 2.001,15L15,15L15,8C15,7.987 15,7.975 15.001,7.962Z" style="fill:rgb(17,17,17);"/>
</svg>
