<svg width="12" height="20" viewBox="0 0 12 20" fill="none" xmlns="http://www.w3.org/2000/svg">
<path d="M1.24327 15.0302L4.19531 14.6056C4.57948 14.5449 4.90299 14.3023 5.04452 13.9383L5.61067 12.5432L3.73026 11.5322C3.71004 11.5322 3.68982 11.512 3.6696 11.4918L3.245 12.5432L0.939982 12.8667C0.353619 12.9476 -0.0709887 13.5137 0.00988891 14.1001C0.0907666 14.646 0.555813 15.0302 1.08152 15.0302C1.14218 15.0302 1.20283 15.0302 1.24327 15.0302Z" fill="white"/>
<path d="M8.89151 2.40393C9.02942 1.35209 8.28853 0.387609 7.2367 0.249698C6.18486 0.111786 5.22038 0.852668 5.08247 1.9045C4.94456 2.95634 5.68544 3.92082 6.73728 4.05873C7.78912 4.19664 8.7536 3.45576 8.89151 2.40393Z" fill="white"/>
<path d="M11.2116 16.1827L9.85688 16.7489H9.12898C9.27052 16.5669 9.35139 16.3445 9.35139 16.1019L9.37161 11.6334C9.37161 11.229 9.1492 10.865 8.80547 10.6628L6.86441 9.65188L7.51143 7.12445L8.46174 7.93323C8.62349 8.07476 8.84591 8.15564 9.06832 8.15564L11.1105 8.09498C11.616 8.07476 12.0001 7.67037 12.0001 7.16489C11.9799 6.6594 11.5755 6.27523 11.07 6.27523L9.37161 6.33589L7.99669 5.16317C7.6934 4.90031 7.30923 4.73856 6.90484 4.6779L5.85343 4.53636C5.0851 4.43527 4.37742 4.96097 4.27632 5.72931L3.64952 9.55078C3.56864 10.0158 3.79105 10.4809 4.21566 10.7033L7.20814 12.3006L7.18792 16.1019C7.18792 16.3445 7.26879 16.5669 7.41033 16.7489H2.55767L1.20297 16.1827C0.980556 16.0816 0.697485 16.1827 0.616607 16.4254C0.51551 16.6478 0.636827 16.9309 0.85924 17.0117L2.29482 17.6183C2.35548 17.6385 2.41613 17.6588 2.47679 17.6588H9.99841C10.0591 17.6588 10.1197 17.6385 10.1804 17.6183L11.616 17.0117C11.8384 16.9106 11.9597 16.6478 11.8586 16.4254C11.6968 16.1827 11.434 16.0816 11.2116 16.1827Z" fill="white"/>
<path d="M3.02262 19.4583C3.41346 19.4583 3.7303 19.1414 3.7303 18.7506C3.7303 18.3597 3.41346 18.0429 3.02262 18.0429C2.63178 18.0429 2.31494 18.3597 2.31494 18.7506C2.31494 19.1414 2.63178 19.4583 3.02262 19.4583Z" fill="white"/>
<path d="M9.37174 19.4583C9.76258 19.4583 10.0794 19.1414 10.0794 18.7506C10.0794 18.3597 9.76258 18.0429 9.37174 18.0429C8.9809 18.0429 8.66406 18.3597 8.66406 18.7506C8.66406 19.1414 8.9809 19.4583 9.37174 19.4583Z" fill="white"/>
</svg>
