<svg xmlns="http://www.w3.org/2000/svg" viewBox="0 0 28 23"><title>zot-truck</title><g id="Camada_2" data-name="Camada 2"><g id="Camada_1-2" data-name="Camada 1"><path d="M25,5.92a5,5,0,0,0-4-3V5.75h-2.8V0H0V18.69H2.8A4.26,4.26,0,0,0,7,23a4.26,4.26,0,0,0,4.2-4.31h7a4.2,4.2,0,1,0,8.4,0H28V10.06A4.31,4.31,0,0,0,25,5.92ZM7,20.12a1.43,1.43,0,0,1-1.4-1.44,1.4,1.4,0,1,1,2.8,0A1.43,1.43,0,0,1,7,20.12Zm15.34,0a1.44,1.44,0,1,1,1.41-1.44A1.43,1.43,0,0,1,22.34,20.12Zm2.85-7.18H21V8.62h2.79a1.43,1.43,0,0,1,1.41,1.44Z" fill="#69bbf0"/></g></g></svg>