<svg xmlns="http://www.w3.org/2000/svg" viewBox="0 0 28 26"><title>zot-card</title><g id="Camada_2" data-name="Camada 2"><g id="Camada_1-2" data-name="Camada 1"><path d="M3.64,17.46,3.53,17,2.26,11.21,22.7,6.44l.93,4.18h1.21l-2-9.24A1.73,1.73,0,0,0,20.75,0L1.35,4.53h0a1.67,1.67,0,0,0-1.08.79A1.73,1.73,0,0,0,.05,6.65L2.5,17.83a1.43,1.43,0,0,0,1.71,1.11h0V17.71l-.15,0A.38.38,0,0,1,3.64,17.46Zm-2.41-11a.68.68,0,0,1,.5-.81L20.89,1.26a.67.67,0,0,1,.79.52L22,3.06,1.52,7.83C1.42,7.39,1.33,7,1.23,6.51Z" fill="#69bbf0"/><path d="M26.28,11H6.39a1.75,1.75,0,0,0-1.72,1.77v11.5A1.74,1.74,0,0,0,6.39,26H26.28A1.75,1.75,0,0,0,28,24.23V12.73A1.75,1.75,0,0,0,26.28,11Zm-15,12a.27.27,0,0,1-.27.27H7.53a.27.27,0,0,1-.27-.27v-.54a.27.27,0,0,1,.27-.27H11a.27.27,0,0,1,.27.27Zm4.86,0a.27.27,0,0,1-.27.27H12.39a.27.27,0,0,1-.27-.27v-.54a.27.27,0,0,1,.27-.27h3.48a.27.27,0,0,1,.27.27Zm4.86,0a.27.27,0,0,1-.27.27H17.25a.27.27,0,0,1-.27-.27v-.54a.27.27,0,0,1,.27-.27h3.48a.27.27,0,0,1,.27.27Zm4.86,0a.27.27,0,0,1-.27.27H22.11a.27.27,0,0,1-.27-.27v-.54a.27.27,0,0,1,.27-.27h3.48a.27.27,0,0,1,.27.27Zm1-7.82a.27.27,0,0,1-.26.27H21.51a.27.27,0,0,1-.27-.27V12.77a.28.28,0,0,1,.27-.28H26.6a.27.27,0,0,1,.26.28Z" fill="#69bbf0"/></g></g></svg>