<svg xmlns="http://www.w3.org/2000/svg" viewBox="0 0 20.99 21"><title>zot-phone</title><g id="Camada_2" data-name="Camada 2"><g id="Camada_1-2" data-name="Camada 1"><path d="M13.34,14c-.77.07-2.37-.63-4-2.31a9.68,9.68,0,0,1-2-2.83A2.64,2.64,0,0,1,7,7.64L1.17,1.84l-.39.4C-1.33,4.34,1,9.94,6,15c3.67,3.66,7.81,6,10.56,6a2.94,2.94,0,0,0,2.19-.79l.38-.38Z" fill="#00bcf2"/><path d="M7.49,6.91l.69-.68a1.82,1.82,0,0,0,0-2.56L5,.53a1.81,1.81,0,0,0-2.56,0l-.69.69Z" fill="#004b8e"/><path d="M20.46,16l-3.13-3.14a1.83,1.83,0,0,0-1.28-.53,1.79,1.79,0,0,0-1.28.53l-.7.7,5.69,5.7.7-.7A1.8,1.8,0,0,0,20.46,16Z" fill="#004b8e"/></g></g></svg>