<svg xmlns="http://www.w3.org/2000/svg" viewBox="0 0 24 21"><title>zot-cart</title><g id="Camada_2" data-name="Camada 2"><g id="Camada_1-2" data-name="Camada 1"><path d="M19.92,17.29a1.86,1.86,0,1,0,1.92,1.86A1.89,1.89,0,0,0,19.92,17.29Zm-11.57,0a1.86,1.86,0,1,0,1.93,1.86A1.9,1.9,0,0,0,8.35,17.29Z" fill="#2b4b8a"/><path d="M23.61,3.21a2,2,0,0,0-1.54-.74H5.64l0-.13A3.19,3.19,0,0,0,2.49,0H.64A.63.63,0,0,0,0,.62a.63.63,0,0,0,.64.62H2.49a1.89,1.89,0,0,1,1.87,1.4L7.24,13.72a3.2,3.2,0,0,0,3.12,2.34h9.56a.62.62,0,1,0,0-1.24H10.36a1.91,1.91,0,0,1-1.87-1.4l-.28-1.07H19.26a3.2,3.2,0,0,0,3.09-2.24l1.57-5.28A1.78,1.78,0,0,0,23.61,3.21Z" fill="#69bbf0"/></g></g></svg>