<svg xmlns="http://www.w3.org/2000/svg" viewBox="0 0 32 21.01"><title>zot-billet</title><g id="Camada_2" data-name="Camada 2"><g id="Camada_1-2" data-name="Camada 1"><path d="M7.17,0a1,1,0,0,0-1,1V20a1,1,0,0,0,2.09,0V1A1,1,0,0,0,7.17,0ZM15,0H11.72a1,1,0,0,0-1,1V20a1,1,0,0,0,1,1H15a1,1,0,0,0,1-1V1A1,1,0,0,0,15,0ZM19.5,0a1,1,0,0,0-1,1V20a1,1,0,0,0,2.09,0V1A1,1,0,0,0,19.5,0Zm4.62,0a1,1,0,0,0-1.05,1V20a1,1,0,0,0,2.09,0V1A1,1,0,0,0,24.12,0ZM31,0H28.67a1,1,0,0,0-1,1V20a1,1,0,0,0,1,1H31a1,1,0,0,0,1-1V1A1,1,0,0,0,31,0ZM2.63,0H1A1,1,0,0,0,0,1V20a1,1,0,0,0,1,1H2.63a1,1,0,0,0,1-1V1A1,1,0,0,0,2.63,0Z" fill="#69bbf0"/></g></g></svg>