<svg width="18" height="16" fill="none" xmlns="http://www.w3.org/2000/svg"><path d="M16.515 9.438l1.47-6.5c.093-.47-.25-.938-.751-.938H4.974L4.691.625C4.598.281 4.285 0 3.94 0H.751A.74.74 0 000 .75v.5c0 .438.313.75.75.75H2.91l2.22 10.75a1.746 1.746 0 00-.875 1.5c0 .969.782 1.75 1.751 1.75.939 0 1.752-.781 1.752-1.75 0-.469-.22-.906-.532-1.25h6.537c-.313.344-.5.781-.5 1.25 0 .969.782 1.75 1.751 1.75.938 0 1.752-.781 1.752-1.75a1.73 1.73 0 00-1.001-1.563l.156-.75A.757.757 0 0015.2 11H6.819L6.6 10h9.164a.77.77 0 00.75-.563z" fill="#fff"/></svg>