<svg width="11" height="15"><path d="M9.188 2.5c.355 0 .656.137.93.383.245.273.382.574.382.93v9.624c0 .383-.137.684-.383.93a1.24 1.24 0 01-.93.383H1.314c-.383 0-.684-.11-.93-.383-.274-.246-.383-.547-.383-.93V3.813c0-.356.11-.657.383-.93.246-.246.547-.383.93-.383H3.5c0-.465.164-.875.52-1.23.328-.329.738-.52 1.23-.52.465 0 .875.191 1.23.52.329.355.52.765.52 1.23h2.188zm-6.563 9.844a.64.64 0 00.465-.192.66.66 0 00.191-.464c0-.165-.082-.329-.191-.465-.137-.11-.3-.192-.465-.192a.66.66 0 00-.465.192.64.64 0 00-.191.464c0 .192.054.356.191.465.11.137.274.192.465.192zm0-2.625a.64.64 0 00.465-.192.66.66 0 00.191-.464c0-.165-.082-.329-.191-.465-.137-.11-.3-.192-.465-.192a.66.66 0 00-.465.192.64.64 0 00-.191.464c0 .192.054.356.191.465.11.137.274.192.465.192zm0-2.625a.64.64 0 00.465-.192.66.66 0 00.191-.465c0-.164-.082-.328-.191-.464-.137-.11-.3-.192-.465-.192a.66.66 0 00-.465.192.64.64 0 00-.191.465c0 .19.054.355.191.464.11.137.274.192.465.192zm2.625-5.25a.66.66 0 00-.465.191.64.64 0 00-.191.465c0 .191.054.355.191.465.11.137.274.191.465.191a.64.64 0 00.465-.191.66.66 0 00.191-.465c0-.164-.082-.328-.191-.465-.137-.11-.3-.191-.465-.191zm3.5 10.062v-.437c0-.055-.027-.082-.082-.137-.055-.055-.082-.082-.137-.082H4.594c-.055 0-.11.027-.164.082-.055.055-.055.082-.055.137v.437c0 .055 0 .11.055.164.054.055.11.055.164.055H8.53c.055 0 .082 0 .137-.055.055-.054.082-.11.082-.164zm0-2.625v-.437c0-.055-.027-.082-.082-.137-.055-.055-.082-.082-.137-.082H4.594c-.055 0-.11.027-.164.082-.055.055-.055.082-.055.137v.437c0 .055 0 .11.055.164.054.055.11.055.164.055H8.53c.055 0 .082 0 .137-.055.055-.054.082-.11.082-.164zm0-2.625V6.22c0-.055-.027-.082-.082-.137C8.613 6.027 8.586 6 8.531 6H4.594c-.055 0-.11.027-.164.082-.055.055-.055.082-.055.137v.437c0 .055 0 .11.055.164.054.055.11.055.164.055H8.53c.055 0 .082 0 .137-.055.055-.054.082-.11.082-.164z"/></svg>