<svg width="20" height="20" fill="none" xmlns="http://www.w3.org/2000/svg"><path d="M19.74 17.288l-3.908-3.903c-.196-.156-.43-.273-.665-.273h-.625a8.128 8.128 0 001.72-4.995C16.262 3.668 12.587 0 8.13 0 3.635 0 0 3.668 0 8.117c0 4.488 3.635 8.117 8.13 8.117a8.088 8.088 0 005.004-1.717v.664c0 .234.079.468.274.663l3.87 3.863c.391.39.977.39 1.33 0l1.094-1.092c.39-.352.39-.937.039-1.327zM8.13 13.112a4.984 4.984 0 01-5.003-4.995 5.009 5.009 0 015.004-4.995c2.736 0 5.003 2.263 5.003 4.995 0 2.77-2.267 4.995-5.003 4.995z" fill="#fff"/></svg>