<svg width="30" height="31" fill="none" xmlns="http://www.w3.org/2000/svg"><path d="M29.805 19.556L26.098 15.5l3.707-4.056c.181-.2.242-.48.158-.734a.758.758 0 00-.566-.502l-5.419-1.135.58-5.427a.746.746 0 00-.31-.686.771.771 0 00-.758-.078l-5.06 2.22L15.66.375A.764.764 0 0015 0a.764.764 0 00-.66.375l-2.77 4.727-5.06-2.22a.772.772 0 00-.757.078.746.746 0 00-.31.686l.579 5.427-5.419 1.135a.757.757 0 00-.565.502.742.742 0 00.158.734L3.903 15.5.196 19.556a.742.742 0 00-.159.734c.084.255.3.446.566.502l5.419 1.134-.58 5.428a.745.745 0 00.31.686.769.769 0 00.758.078l5.06-2.22 2.77 4.727A.764.764 0 0015 31a.763.763 0 00.659-.375l2.77-4.727 5.061 2.22a.772.772 0 00.758-.078.746.746 0 00.31-.685l-.58-5.428 5.419-1.135a.757.757 0 00.566-.502.743.743 0 00-.159-.734zm-6.592.997a.758.758 0 00-.542.438.743.743 0 00-.255.643l.489 4.585-4.275-1.875a.77.77 0 00-.7.04.762.762 0 00-.59.372L15 28.75l-2.34-3.993a.762.762 0 00-.59-.372.77.77 0 00-.7-.04l-4.275 1.875.49-4.585a.744.744 0 00-.256-.643.758.758 0 00-.541-.438l-4.578-.959 3.131-3.426a.741.741 0 00.177-.668.741.741 0 00-.177-.668L2.21 11.406l4.578-.959a.758.758 0 00.541-.438.744.744 0 00.255-.642L7.095 4.78l4.276 1.875a.77.77 0 00.7-.04.761.761 0 00.589-.373L15 2.25l2.34 3.993c.128.22.352.35.59.372a.77.77 0 00.7.041l4.274-1.875-.489 4.585a.744.744 0 00.256.643c.094.216.29.386.541.438l4.578.959-3.132 3.426a.741.741 0 00-.176.668c-.053.23.005.48.176.668l3.132 3.426-4.577.959z" fill="#111"/></svg>