<svg width="18" height="15"><path d="M17.063 10.375a.44.44 0 01.3.137.44.44 0 01.137.3v.876a.453.453 0 01-.137.328.411.411 0 01-.3.109H15.75c0 .738-.273 1.367-.766 1.86a2.54 2.54 0 01-1.859.765c-.738 0-1.367-.246-1.86-.766-.519-.492-.765-1.12-.765-1.859H7c0 .738-.273 1.367-.766 1.86a2.54 2.54 0 01-1.859.765c-.738 0-1.367-.246-1.86-.766-.519-.492-.765-1.12-.765-1.859h-.438c-.382 0-.683-.11-.93-.383-.273-.246-.382-.547-.382-.93v-8.75c0-.355.11-.656.383-.93C.629.888.93.75 1.313.75h8.75c.355 0 .656.137.93.383.245.273.382.574.382.93v1.312h1.203c.356 0 .656.137.93.383l2.734 2.734c.246.274.383.574.383.93v2.953h.438zM4.374 13.438c.355 0 .656-.11.93-.383.246-.246.383-.547.383-.93 0-.355-.137-.656-.383-.93-.274-.246-.575-.383-.93-.383-.383 0-.684.137-.93.383a1.239 1.239 0 00-.382.93c0 .383.109.684.382.93.246.273.547.383.93.383zm8.75 0c.355 0 .656-.11.93-.383.246-.246.383-.547.383-.93 0-.355-.137-.656-.383-.93-.274-.246-.575-.383-.93-.383-.383 0-.684.137-.93.383a1.24 1.24 0 00-.383.93c0 .383.11.684.383.93.246.273.547.383.93.383zm2.188-5.688v-.328l-2.735-2.734h-1.203V7.75h3.938z"/></svg>