<svg viewBox="0 0 24 24" xmlns="http://www.w3.org/2000/svg" fill-rule="evenodd" clip-rule="evenodd" stroke-linejoin="round" stroke-miterlimit="2"><path d="M2.337 17a3.5 3.5 0 106.326 0h6.674a3.5 3.5 0 106.326 0H23a1 1 0 001-1v-5a.997.997 0 00-.293-.707l-3-3A.997.997 0 0020 7h-2.999V3a1 1 0 00-1-1h-15a1 1 0 00-1 1v13a1 1 0 001 1h1.336zM5.5 20a1.5 1.5 0 11.001-3.001A1.5 1.5 0 015.5 20zm13 0a1.5 1.5 0 11.001-3.001A1.5 1.5 0 0118.5 20zM17.001 9h2.585L22 11.414V15H17.001V9zm-2-1.038V4h-13v11H15V8l.001-.038z" fill="#111"/></svg>