<svg width="12" height="20" fill="none" xmlns="http://www.w3.org/2000/svg"><path d="M1.243 15.03l2.952-.424c.384-.061.708-.304.85-.668l.566-1.395-1.88-1.01c-.021 0-.041-.021-.061-.041l-.425 1.051-2.305.324A1.107 1.107 0 00.01 14.1c.08.546.546.93 1.072.93h.161zM8.892 2.404a1.92 1.92 0 10-3.81-.5 1.92 1.92 0 003.81.5z" fill="#fff"/><path d="M11.212 16.183l-1.355.566h-.728c.142-.182.222-.404.222-.647l.02-4.469a1.13 1.13 0 00-.566-.97l-1.94-1.011.646-2.528.95.81a.934.934 0 00.607.222l2.043-.061a.92.92 0 00.89-.93.92.92 0 00-.931-.89l-1.698.06-1.375-1.172a2.15 2.15 0 00-1.092-.485l-1.052-.142A1.395 1.395 0 004.276 5.73L3.65 9.551c-.081.465.141.93.566 1.152l2.992 1.598-.02 3.8c0 .244.08.466.222.648H2.558l-1.355-.566c-.222-.101-.506 0-.586.242a.446.446 0 00.242.587l1.436.606c.06.02.121.04.182.04h7.521c.061 0 .122-.02.182-.04l1.436-.606c.222-.101.344-.364.243-.587-.162-.242-.425-.343-.647-.242zM3.023 19.458a.708.708 0 100-1.415.708.708 0 000 1.415zM9.372 19.458a.708.708 0 100-1.415.708.708 0 000 1.415z" fill="#fff"/></svg>