<svg class="svg-sprites" id="skin-sprite" xmlns="http://www.w3.org/2000/svg" xmlns:xlink="http://www.w3.org/1999/xlink">
    <symbol viewBox="0 0 32 21.01" id="zot-billet" xmlns="http://www.w3.org/2000/svg"><g data-name="Camada 2"><path d="M7.17 0a1 1 0 00-1 1v19a1 1 0 002.09 0V1a1 1 0 00-1.09-1zM15 0h-3.28a1 1 0 00-1 1v19a1 1 0 001 1H15a1 1 0 001-1V1a1 1 0 00-1-1zm4.5 0a1 1 0 00-1 1v19a1 1 0 002.09 0V1a1 1 0 00-1.09-1zm4.62 0a1 1 0 00-1.05 1v19a1 1 0 002.09 0V1a1 1 0 00-1.04-1zM31 0h-2.33a1 1 0 00-1 1v19a1 1 0 001 1H31a1 1 0 001-1V1a1 1 0 00-1-1zM2.63 0H1a1 1 0 00-1 1v19a1 1 0 001 1h1.63a1 1 0 001-1V1a1 1 0 00-1-1z" fill="#69bbf0" data-name="Camada 1"/></g></symbol>
    <symbol viewBox="0 0 28 26" id="zot-card" xmlns="http://www.w3.org/2000/svg"><g data-name="Camada 2"><g data-name="Camada 1" fill="#69bbf0"><path d="M3.64 17.46L3.53 17l-1.27-5.79L22.7 6.44l.93 4.18h1.21l-2-9.24A1.73 1.73 0 0020.75 0L1.35 4.53a1.67 1.67 0 00-1.08.79 1.73 1.73 0 00-.22 1.33L2.5 17.83a1.43 1.43 0 001.71 1.11v-1.23h-.15a.38.38 0 01-.42-.25zm-2.41-11a.68.68 0 01.5-.81l19.16-4.39a.67.67 0 01.79.52L22 3.06 1.52 7.83c-.1-.44-.19-.83-.29-1.32z"/><path d="M26.28 11H6.39a1.75 1.75 0 00-1.72 1.77v11.5A1.74 1.74 0 006.39 26h19.89A1.75 1.75 0 0028 24.23v-11.5A1.75 1.75 0 0026.28 11zm-15 12a.27.27 0 01-.27.27H7.53a.27.27 0 01-.27-.27v-.54a.27.27 0 01.27-.27H11a.27.27 0 01.27.27zm4.86 0a.27.27 0 01-.27.27h-3.48a.27.27 0 01-.27-.27v-.54a.27.27 0 01.27-.27h3.48a.27.27 0 01.27.27zM21 23a.27.27 0 01-.27.27h-3.48a.27.27 0 01-.27-.27v-.54a.27.27 0 01.27-.27h3.48a.27.27 0 01.27.27zm4.86 0a.27.27 0 01-.27.27h-3.48a.27.27 0 01-.27-.27v-.54a.27.27 0 01.27-.27h3.48a.27.27 0 01.27.27zm1-7.82a.27.27 0 01-.26.27h-5.09a.27.27 0 01-.27-.27v-2.41a.28.28 0 01.27-.28h5.09a.27.27 0 01.26.28z"/></g></g></symbol>
    <symbol viewBox="0 0 24 21" id="zot-cart" xmlns="http://www.w3.org/2000/svg"><g data-name="Camada 2"><g data-name="Camada 1"><path d="M19.92 17.29a1.86 1.86 0 101.92 1.86 1.89 1.89 0 00-1.92-1.86zm-11.57 0a1.86 1.86 0 101.93 1.86 1.9 1.9 0 00-1.93-1.86z" fill="#2b4b8a"/><path d="M23.61 3.21a2 2 0 00-1.54-.74H5.64v-.13A3.19 3.19 0 002.49 0H.64A.63.63 0 000 .62a.63.63 0 00.64.62h1.85a1.89 1.89 0 011.87 1.4l2.88 11.08a3.2 3.2 0 003.12 2.34h9.56a.62.62 0 100-1.24h-9.56a1.91 1.91 0 01-1.87-1.4l-.28-1.07h11.05a3.2 3.2 0 003.09-2.24l1.57-5.28a1.78 1.78 0 00-.31-1.62z" fill="#69bbf0"/></g></g></symbol>
    <symbol viewBox="0 0 30 30" id="zot-discount" xmlns="http://www.w3.org/2000/svg"><g data-name="Camada 2"><path d="M15 0a15 15 0 1015 15A15 15 0 0015 0zm-3 8.07a2.43 2.43 0 11-2.44 2.42A2.41 2.41 0 0112 8.07zM18 22a2.43 2.43 0 112.44-2.43A2.42 2.42 0 0118 22zm2.3-12.51l-9.12 12.13a1 1 0 01-.74.37.92.92 0 01-.55-.18.9.9 0 01-.19-1.29l9.12-12.13a.92.92 0 011.48 1.1z" fill="#69bbf0" data-name="Camada 1"/></g></symbol>
    <symbol viewBox="0 0 20.99 21" id="zot-phone" xmlns="http://www.w3.org/2000/svg"><g data-name="Camada 2"><g data-name="Camada 1"><path d="M13.34 14c-.77.07-2.37-.63-4-2.31a9.68 9.68 0 01-2-2.83A2.64 2.64 0 017 7.64l-5.83-5.8-.39.4C-1.33 4.34 1 9.94 6 15c3.67 3.66 7.81 6 10.56 6a2.94 2.94 0 002.19-.79l.38-.38z" fill="#00bcf2"/><path d="M7.49 6.91l.69-.68a1.82 1.82 0 000-2.56L5 .53a1.81 1.81 0 00-2.56 0l-.69.69zM20.46 16l-3.13-3.14a1.83 1.83 0 00-1.28-.53 1.79 1.79 0 00-1.28.53l-.7.7 5.69 5.7.7-.7a1.8 1.8 0 000-2.56z" fill="#004b8e"/></g></g></symbol>
    <symbol viewBox="0 0 28 23" id="zot-truck" xmlns="http://www.w3.org/2000/svg"><g data-name="Camada 2"><path d="M25 5.92a5 5 0 00-4-3v2.83h-2.8V0H0v18.69h2.8A4.26 4.26 0 007 23a4.26 4.26 0 004.2-4.31h7a4.2 4.2 0 108.4 0H28v-8.63a4.31 4.31 0 00-3-4.14zM7 20.12a1.43 1.43 0 01-1.4-1.44 1.4 1.4 0 112.8 0A1.43 1.43 0 017 20.12zm15.34 0a1.44 1.44 0 111.41-1.44 1.43 1.43 0 01-1.41 1.44zm2.85-7.18H21V8.62h2.79a1.43 1.43 0 011.41 1.44z" fill="#69bbf0" data-name="Camada 1"/></g></symbol>
</svg>