<svg class="svg-sprites" id="skin-sprite" xmlns="http://www.w3.org/2000/svg" xmlns:xlink="http://www.w3.org/1999/xlink">
	<symbol viewBox="0 0 24 24" fill-rule="evenodd" clip-rule="evenodd" stroke-linejoin="round" stroke-miterlimit="2" id="z-card" xmlns="http://www.w3.org/2000/svg"><path d="M21 3H3a3 3 0 00-3 3v12a3 3 0 003 3h18a3 3 0 003-3V6a3 3 0 00-3-3zm1 8v7a1 1 0 01-1 1H3a1 1 0 01-1-1v-7h20zm0-2H2V6a1 1 0 011-1h18a1 1 0 011 1v3z" fill="currentColor"/></symbol>
	<symbol viewBox="0 0 18 16" id="z-cart" xmlns="http://www.w3.org/2000/svg"><path d="M16.515 9.438l1.47-6.5c.093-.47-.25-.938-.751-.938H4.974L4.691.625C4.598.281 4.285 0 3.94 0H.751A.74.74 0 000 .75v.5c0 .438.313.75.75.75h2.16l2.22 10.75a1.746 1.746 0 00-.875 1.5c0 .969.782 1.75 1.751 1.75.939 0 1.752-.781 1.752-1.75 0-.469-.22-.906-.532-1.25h6.537c-.313.344-.5.781-.5 1.25 0 .969.782 1.75 1.751 1.75.938 0 1.752-.781 1.752-1.75a1.73 1.73 0 00-1.001-1.563l.156-.75A.757.757 0 0015.2 11H6.819L6.6 10h9.164a.77.77 0 00.75-.563z" fill="currentColor"/></symbol>
	<symbol viewBox="0 0 8 5" id="z-down" xmlns="http://www.w3.org/2000/svg"><path d="M3.363 4.682c.211.21.563.21.774 0l3.187-3.188c.235-.234.235-.586 0-.797L6.81.158c-.235-.21-.586-.21-.797 0L3.738 2.432 1.488.158c-.21-.21-.562-.21-.797 0l-.515.54c-.235.21-.235.562 0 .796l3.187 3.188z" fill="currentColor"/></symbol>
	<symbol viewBox="0 0 20 20" id="z-search" xmlns="http://www.w3.org/2000/svg"><path d="M19.74 17.288l-3.908-3.903c-.196-.156-.43-.273-.665-.273h-.625a8.128 8.128 0 001.72-4.995C16.262 3.668 12.587 0 8.13 0 3.635 0 0 3.668 0 8.117c0 4.488 3.635 8.117 8.13 8.117a8.088 8.088 0 005.004-1.717v.664c0 .234.079.468.274.663l3.87 3.863c.391.39.977.39 1.33 0l1.094-1.092c.39-.352.39-.937.039-1.327zM8.13 13.112a4.984 4.984 0 01-5.003-4.995 5.009 5.009 0 015.004-4.995c2.736 0 5.003 2.263 5.003 4.995 0 2.77-2.267 4.995-5.003 4.995z" fill="currentColor"/></symbol>
	<symbol viewBox="0 0 30 31" id="z-star" xmlns="http://www.w3.org/2000/svg"><path d="M29.805 19.556L26.098 15.5l3.707-4.056c.181-.2.242-.48.158-.734a.758.758 0 00-.566-.502l-5.419-1.135.58-5.427a.746.746 0 00-.31-.686.771.771 0 00-.758-.078l-5.06 2.22L15.66.375A.764.764 0 0015 0a.764.764 0 00-.66.375l-2.77 4.727-5.06-2.22a.772.772 0 00-.757.078.746.746 0 00-.31.686l.579 5.427-5.419 1.135a.757.757 0 00-.565.502.742.742 0 00.158.734L3.903 15.5.196 19.556a.742.742 0 00-.159.734c.084.255.3.446.566.502l5.419 1.134-.58 5.428a.745.745 0 00.31.686.769.769 0 00.758.078l5.06-2.22 2.77 4.727A.764.764 0 0015 31a.763.763 0 00.659-.375l2.77-4.727 5.061 2.22a.772.772 0 00.758-.078.746.746 0 00.31-.685l-.58-5.428 5.419-1.135a.757.757 0 00.566-.502.743.743 0 00-.159-.734zm-6.592.997a.758.758 0 00-.542.438.743.743 0 00-.255.643l.489 4.585-4.275-1.875a.77.77 0 00-.7.04.762.762 0 00-.59.372L15 28.75l-2.34-3.993a.762.762 0 00-.59-.372.77.77 0 00-.7-.04L7.095 26.22l.49-4.585a.744.744 0 00-.256-.643.758.758 0 00-.541-.438l-4.578-.959 3.131-3.426a.741.741 0 00.177-.668.741.741 0 00-.177-.668L2.21 11.406l4.578-.959a.758.758 0 00.541-.438.744.744 0 00.255-.642L7.095 4.78l4.276 1.875a.77.77 0 00.7-.04.761.761 0 00.589-.373L15 2.25l2.34 3.993a.76.76 0 00.59.372.77.77 0 00.7.041l4.274-1.875-.489 4.585a.744.744 0 00.256.643c.094.216.29.386.541.438l4.578.959-3.132 3.426a.741.741 0 00-.176.668c-.053.23.005.48.176.668l3.132 3.426-4.577.959z" fill="currentColor"/></symbol>
	<symbol viewBox="0 0 24 24" fill-rule="evenodd" clip-rule="evenodd" stroke-linejoin="round" stroke-miterlimit="2" id="z-truck" xmlns="http://www.w3.org/2000/svg"><path d="M2.337 17a3.5 3.5 0 106.326 0h6.674a3.5 3.5 0 106.326 0H23a1 1 0 001-1v-5a.997.997 0 00-.293-.707l-3-3A.997.997 0 0020 7h-2.999V3a1 1 0 00-1-1h-15a1 1 0 00-1 1v13a1 1 0 001 1h1.336zM5.5 20a1.5 1.5 0 11.001-3.001A1.5 1.5 0 015.5 20zm13 0a1.5 1.5 0 11.001-3.001A1.5 1.5 0 0118.5 20zM17.001 9h2.585L22 11.414V15h-4.999V9zm-2-1.038V4h-13v11H15V8l.001-.038z" fill="currentColor"/></symbol>
	<symbol viewBox="0 0 12 20" id="z-user" xmlns="http://www.w3.org/2000/svg"><path d="M1.243 15.03l2.952-.424c.384-.061.708-.304.85-.668l.566-1.395-1.88-1.01c-.021 0-.041-.021-.061-.041l-.425 1.051-2.305.324A1.107 1.107 0 00.01 14.1c.08.546.546.93 1.072.93h.161zM8.892 2.404a1.92 1.92 0 10-3.81-.5 1.92 1.92 0 003.81.5z" fill="currentColor"/><path d="M11.212 16.183l-1.355.566h-.728a1.04 1.04 0 00.222-.647l.02-4.469a1.13 1.13 0 00-.566-.97l-1.94-1.011.646-2.528.95.81a.934.934 0 00.607.222l2.043-.061a.92.92 0 00.89-.93.92.92 0 00-.931-.89l-1.698.06-1.375-1.172a2.15 2.15 0 00-1.092-.485l-1.052-.142A1.395 1.395 0 004.276 5.73L3.65 9.551c-.081.465.141.93.566 1.152l2.992 1.598-.02 3.8c0 .244.08.466.222.648H2.558l-1.355-.566c-.222-.101-.506 0-.586.242a.446.446 0 00.242.587l1.436.606c.06.02.121.04.182.04h7.521a.59.59 0 00.182-.04l1.436-.606c.222-.101.344-.364.243-.587-.162-.242-.425-.343-.647-.242zm-8.189 3.275a.708.708 0 100-1.415.708.708 0 000 1.415zm6.349 0a.708.708 0 100-1.415.708.708 0 000 1.415z" fill="currentColor"/></symbol>
	<symbol viewBox="0 0 7 12" fill-rule="evenodd" clip-rule="evenodd" stroke-linejoin="round" stroke-miterlimit="2" id="z-next" xmlns="http://www.w3.org/2000/svg"><path d="M.434 1.566L4.869 6 .434 10.434a.802.802 0 001.132 1.132l5-5a.802.802 0 000-1.132l-5-5A.802.802 0 00.434 1.566z" fill="currentColor"/></symbol>
	<symbol viewBox="0 0 7 12" fill-rule="evenodd" clip-rule="evenodd" stroke-linejoin="round" stroke-miterlimit="2" id="z-prev" xmlns="http://www.w3.org/2000/svg"><path d="M5.434.434l-5 5a.802.802 0 000 1.132l5 5a.802.802 0 001.132-1.132L2.131 6l4.435-4.434A.802.802 0 005.434.434z" fill="currentColor"/></symbol>
</svg>