<!-- SVG Sprite -->
<svg id="svg-sprite" class="svg-sprites">
    <!-- Gradients -->
    <defs>
        <!-- Horizontais -->
        <linearGradient id="color1_h" x1="0%" y1="0%" x2="100%" y2="0%"><stop offset="0%" stop-color="@bg(1)" /><stop offset="100%" stop-color="@bg(1:hover)" /></linearGradient>
        <linearGradient id="color2_h" x1="0%" y1="0%" x2="100%" y2="0%"><stop offset="0%" stop-color="@bg(2)" /><stop offset="100%" stop-color="@bg(2:hover)" /></linearGradient>
        <linearGradient id="color3_h" x1="0%" y1="0%" x2="100%" y2="0%"><stop offset="0%" stop-color="@bg(3)" /><stop offset="100%" stop-color="@bg(3:hover)" /></linearGradient>
        <linearGradient id="button_h" x1="0%" y1="0%" x2="100%" y2="0%"><stop offset="0%" stop-color="@button(bg)" /><stop offset="100%" stop-color="@button(bg:hover)" /></linearGradient>
        <linearGradient id="timer__gradient" x1="0%" y1="0%" x2="100%" y2="0%"><stop offset="0%" stop-color="@bg(1)" /><stop offset="100%" stop-color="@bg(2)" /></linearGradient>
        <!-- Verticais -->
        <linearGradient id="color1_v" x1="0%" y1="0%" x2="0%" y2="100%"><stop offset="0%" stop-color="@bg(1)" /><stop offset="100%" stop-color="@bg(1:hover)" /></linearGradient>
        <linearGradient id="color2_v" x1="0%" y1="0%" x2="0%" y2="100%"><stop offset="0%" stop-color="@bg(2)" /><stop offset="100%" stop-color="@bg(2:hover)" /></linearGradient>
        <linearGradient id="color3_v" x1="0%" y1="0%" x2="0%" y2="100%"><stop offset="0%" stop-color="@bg(3)" /><stop offset="100%" stop-color="@bg(3:hover)" /></linearGradient>
        <linearGradient id="button_v" x1="0%" y1="0%" x2="0%" y2="100%"><stop offset="0%" stop-color="@button(bg)" /><stop offset="100%" stop-color="@button(bg:hover)" /></linearGradient>
    </defs>
    <!--
	Ícones Obrigatórios
	* É possível alterá-los, porém não altere o ID
	-->
    <symbol id="i-play" 		viewBox="0 0 16 16"><path d="M2.9,1C1.3,0.2,0,0.9,0,2.4v11.2c0,1.5,1.3,2.1,2.9,1.4l11.9-5.6c1.6-0.8,1.6-2,0-2.7L2.9,1z"/></symbol>
    <symbol id="i-list" 		viewBox="0 0 16 16"><path d="M14.4,3.2H1.6C0.7,3.2,0,2.5,0,1.6v0C0,0.7,0.7,0,1.6,0l12.8,0C15.3,0,16,0.7,16,1.6v0 C16,2.5,15.3,3.2,14.4,3.2z M16,14.4L16,14.4c0-0.9-0.7-1.6-1.6-1.6H1.6c-0.9,0-1.6,0.7-1.6,1.6v0C0,15.3,0.7,16,1.6,16h12.8 C15.3,16,16,15.3,16,14.4z M16,8L16,8c0-0.9-0.7-1.6-1.6-1.6H1.6C0.7,6.4,0,7.1,0,8v0c0,0.9,0.7,1.6,1.6,1.6h12.8 C15.3,9.6,16,8.9,16,8z"/></symbol>
    <symbol id="i-grid" 		viewBox="0 0 16 16"><path d="M3.2,1.6c0,0.9-0.7,1.6-1.6,1.6S0,2.5,0,1.6S0.7,0,1.6,0S3.2,0.7,3.2,1.6z M8,0 C7.1,0,6.4,0.7,6.4,1.6S7.1,3.2,8,3.2s1.6-0.7,1.6-1.6S8.9,0,8,0z M14.4,0c-0.9,0-1.6,0.7-1.6,1.6s0.7,1.6,1.6,1.6S16,2.5,16,1.6 S15.3,0,14.4,0z M1.6,6.4C0.7,6.4,0,7.1,0,8s0.7,1.6,1.6,1.6S3.2,8.9,3.2,8S2.5,6.4,1.6,6.4z M8,6.4C7.1,6.4,6.4,7.1,6.4,8 S7.1,9.6,8,9.6S9.6,8.9,9.6,8S8.9,6.4,8,6.4z M14.4,6.4c-0.9,0-1.6,0.7-1.6,1.6s0.7,1.6,1.6,1.6S16,8.9,16,8S15.3,6.4,14.4,6.4z M1.6,12.8c-0.9,0-1.6,0.7-1.6,1.6S0.7,16,1.6,16s1.6-0.7,1.6-1.6S2.5,12.8,1.6,12.8z M8,12.8c-0.9,0-1.6,0.7-1.6,1.6S7.1,16,8,16 s1.6-0.7,1.6-1.6S8.9,12.8,8,12.8z M14.4,12.8c-0.9,0-1.6,0.7-1.6,1.6s0.7,1.6,1.6,1.6s1.6-0.7,1.6-1.6S15.3,12.8,14.4,12.8z"/></symbol>
    <symbol id="i-success"      viewBox="0 0 16 16"><path d="M8,0C3.6,0,0,3.6,0,8c0,4.4,3.6,8,8,8c4.4,0,8-3.6,8-8S12.4,0,8,0z M7.4,12.7l-1-0.7l0,0L2.9,9.5l0.7-1 L7.1,11l4.7-6.5l1,0.7L7.4,12.7z"/></symbol>
    <symbol id="img-truck" 		viewBox="0 0 16 16"><path d="M1.1,12L8,16l6.9-4V4L8,0L1.1,4V12z M7.5,14.6l-2.3-1.3V7l2.3,1.3V14.6z M14,11.5l-5.5,3.2V8.3 L14,5.1V11.5z M13.5,4.3L8,7.5L5.7,6.1l5.3-3.4L13.5,4.3z M8,1.1l2,1.2L4.8,5.6L2.5,4.3L8,1.1z M2,5.1l2.3,1.3v6.4L2,11.5 C2,11.5,2,5.1,2,5.1z M13.2,8.5L10.5,10v2.4l2.7-1.5V8.5z"/></symbol>
    <symbol id="img-cupon" 		viewBox="0 0 16 16"><path d="M16,0.6C16,0.3,15.8,0,15.4,0H7.5C7.4,0,7.2,0.1,7.1,0.2L0.7,6.5C0.3,6.9,0,7.5,0,8.1 c0,0.6,0.2,1.2,0.7,1.6l5.6,5.6c0.4,0.4,1,0.7,1.6,0.7s1.2-0.2,1.6-0.7l6.4-6.5C16,8.8,16,8.6,16,8.4V0.6z M7.2,14.4L1.6,8.8 C1.4,8.6,1.3,8.4,1.3,8.1c0-0.3,0.1-0.5,0.3-0.7l0.3-0.3l7,7l-0.3,0.3C8.2,14.8,7.5,14.8,7.2,14.4z M9.7,13.3l-7-7l5-5h7v6.9 L9.7,13.3z M13.2,4.4c0-1-0.8-1.8-1.7-1.8S9.7,3.4,9.7,4.4s0.8,1.8,1.7,1.8S13.2,5.4,13.2,4.4z M11.4,4.9c-0.3,0-0.6-0.2-0.6-0.6 s0.2-0.6,0.6-0.6c0.3,0,0.6,0.2,0.6,0.6S11.7,4.9,11.4,4.9z"/></symbol>
    <symbol id="img-os-new" 	viewBox="0 0 16 16"><path d="M13.5,15.9c0,0.1-0.1,0.1-0.1,0.1c-0.1,0-0.1,0-0.2,0c0,0-0.1,0-0.1,0l-0.7-0.7l-0.7,0.7 c-0.1,0.1-0.2,0.1-0.3,0l-0.7-0.7l-0.7,0.7c-0.1,0.1-0.2,0.1-0.3,0l-0.7-0.7l-0.7,0.7c-0.1,0.1-0.2,0.1-0.3,0l-0.7-0.7l-0.7,0.7 c-0.1,0.1-0.2,0.1-0.3,0l-0.7-0.7l-0.7,0.7c-0.1,0.1-0.2,0.1-0.3,0l-0.7-0.7l-0.7,0.7c0,0,0,0-0.1,0c-0.1,0-0.1,0-0.2,0 c-0.1,0-0.1-0.1-0.1-0.1c0,0,0-0.1,0-0.1V2.2c0,0,0,0,0,0c0,0,0,0,0,0c0-0.4,0.3-0.7,0.7-0.7c0,0,0,0,0,0h2.3V2H3.2c0,0,0,0,0,0 C3.1,2,3,2.1,3,2.2c0,0,0,0,0,0c0,0,0,0,0,0v13l0.5-0.5c0,0,0.1-0.1,0.2-0.1s0.1,0,0.2,0.1l0.7,0.7l0.7-0.7c0,0,0.1-0.1,0.2-0.1 c0.1,0,0.1,0,0.2,0.1l0.7,0.7L7,14.8c0,0,0.1-0.1,0.2-0.1c0.1,0,0.1,0,0.2,0.1L8,15.5l0.7-0.7c0,0,0.1-0.1,0.2-0.1 c0.1,0,0.1,0,0.2,0.1l0.7,0.7l0.7-0.7c0,0,0.1-0.1,0.2-0.1c0.1,0,0.1,0,0.2,0.1l0.7,0.7l0.7-0.7c0,0,0.1-0.1,0.2-0.1 c0.1,0,0.1,0,0.2,0.1l0.5,0.5v-13C13,2.1,12.9,2,12.8,2h-2.3V1.6h2.3c0.4,0,0.7,0.3,0.7,0.7L13.5,15.9 C13.5,15.8,13.5,15.8,13.5,15.9z M10.2,10.1c-0.2,0-0.4-0.3-0.4-0.7c0-0.4,0.2-0.7,0.4-0.7s0.4,0.3,0.4,0.7 C10.6,9.8,10.4,10.1,10.2,10.1z M6.9,11c0,0.6,0.5,1.1,1.1,1.1c0.6,0,1.1-0.5,1.1-1.1c0-0.1,0.1-0.2,0.2-0.2c0.1,0,0.2,0.1,0.2,0.2 c0,0.8-0.7,1.5-1.5,1.5S6.5,11.8,6.5,11c0-0.1,0.1-0.2,0.2-0.2C6.8,10.7,6.9,10.8,6.9,11z M6.3,1.5l0.3-0.3l1.1,1.1L10,0l0.3,0.3 L7.8,3.1L6.3,1.5z M5.8,10.1c-0.2,0-0.4-0.3-0.4-0.7c0-0.4,0.2-0.7,0.4-0.7s0.4,0.3,0.4,0.7C6.3,9.8,6.1,10.1,5.8,10.1z"/></symbol>
    <symbol id="img-os-ok" 		viewBox="0 0 16 16"><path d="M15.7,15.5H0.3c-0.2,0-0.3-0.1-0.3-0.3v-10c0,0,0,0,0,0v0c0,0,0,0,0,0c0,0,0,0,0-0.1l1.8-4.5c0,0,0,0,0,0 c0-0.1,0.1-0.2,0.2-0.2c0,0,0,0,0,0c0,0,0,0,0,0h11.8c0,0,0,0,0,0c0,0,0,0,0,0c0.1,0,0.2,0.1,0.2,0.2c0,0,0,0,0,0L16,5.1 c0,0,0,0,0,0.1c0,0,0,0,0,0v0c0,0,0,0,0,0v10C16,15.4,15.9,15.5,15.7,15.5z M2.3,1L0.7,4.9h5.6L6.8,1C6.8,1,2.3,1,2.3,1z M7.7,1H7.4 L7,4.9h0.7V1z M8.6,1H8.3v3.9H9L8.6,1z M9.1,5.5H6.9v0.7l1-0.3c0,0,0,0,0,0c0,0,0,0,0.1,0c0,0,0,0,0.1,0c0,0,0,0,0,0l1,0.3L9.1,5.5 L9.1,5.5z M13.7,1H9.2l0.4,3.9h5.6L13.7,1z M15.4,5.5H9.7v1.1c0,0,0,0,0,0c0,0,0,0,0,0c0,0,0,0,0,0c0,0.1-0.1,0.1-0.1,0.1 c0,0,0,0,0,0c0,0-0.1,0-0.2,0c0,0-0.1,0-0.1,0L8,6.5L6.7,6.9c0,0-0.1,0-0.1,0c-0.1,0-0.1,0-0.2,0c0,0,0,0,0,0c0,0-0.1-0.1-0.1-0.1 c0,0,0,0,0,0c0,0,0,0,0,0c0,0,0,0,0,0V5.5H0.6V15h14.8h0V5.5z M11,10.2c-0.3,0-0.6-0.4-0.6-0.9s0.3-0.9,0.6-0.9 c0.3,0,0.6,0.4,0.6,0.9S11.3,10.2,11,10.2z M8,13.5c-1.1,0-2.1-0.9-2.1-2.1c0-0.2,0.1-0.3,0.3-0.3c0.2,0,0.3,0.1,0.3,0.3 c0,0.8,0.7,1.5,1.5,1.5s1.5-0.7,1.5-1.5c0-0.2,0.1-0.3,0.3-0.3s0.3,0.1,0.3,0.3C10.1,12.6,9.1,13.5,8,13.5z M5,10.2 c-0.3,0-0.6-0.4-0.6-0.9S4.7,8.5,5,8.5c0.3,0,0.6,0.4,0.6,0.9S5.4,10.2,5,10.2z"/></symbol>
    <symbol id="img-os-sent" 	viewBox="0 0 16 16"><path d="M8,16C6.2,16,2.4,8.3,2.4,5.6C2.4,2.5,4.9,0,8,0s5.6,2.5,5.6,5.6C13.6,8.3,9.8,16,8,16z M8,0.5 c-2.8,0-5.1,2.3-5.1,5.1c0,2.9,3.8,9.9,5.1,9.9c1.2,0,5.1-7,5.1-9.9C13.1,2.8,10.8,0.5,8,0.5z M10.4,6.1c-0.3,0-0.5-0.3-0.5-0.7 c0-0.4,0.2-0.7,0.5-0.7s0.5,0.3,0.5,0.7C10.9,5.7,10.7,6.1,10.4,6.1z M8,8.7C7.1,8.7,6.3,8,6.3,7c0-0.1,0.1-0.2,0.2-0.2 c0.1,0,0.2,0.1,0.2,0.2c0,0.7,0.5,1.2,1.2,1.2S9.2,7.7,9.2,7c0-0.1,0.1-0.2,0.2-0.2S9.7,6.9,9.7,7C9.7,8,8.9,8.7,8,8.7z M5.6,6.1 c-0.3,0-0.5-0.3-0.5-0.7c0-0.4,0.2-0.7,0.5-0.7s0.5,0.3,0.5,0.7C6.1,5.7,5.8,6.1,5.6,6.1z"/></symbol>
    <symbol id="img-os-hold" 	viewBox="0 0 16 16"><path d="M13.1,15.9c0,0-0.1,0.1-0.1,0.1c0,0-0.1,0-0.2,0c0,0,0,0-0.1,0l-0.7-0.7l-0.7,0.7c-0.1,0.1-0.2,0.1-0.3,0 l-0.7-0.7l-0.7,0.7c-0.1,0.1-0.2,0.1-0.3,0l-0.7-0.7l-0.7,0.7c-0.1,0.1-0.2,0.1-0.3,0l-0.7-0.7l-0.7,0.7c-0.1,0.1-0.2,0.1-0.3,0 l-0.7-0.7l-0.7,0.7c-0.1,0.1-0.2,0.1-0.3,0l-0.7-0.7l-0.7,0.7c0,0,0,0-0.1,0c-0.1,0-0.1,0-0.2,0c0,0-0.1-0.1-0.1-0.1 c0,0,0-0.1,0-0.1V3.2c0,0,0,0,0,0c0,0,0,0,0,0c0-0.3,0.3-0.6,0.6-0.6c0,0,0,0,0,0h2.1V3H3.5c0,0,0,0,0,0C3.4,3,3.3,3.1,3.3,3.2 c0,0,0,0,0,0c0,0,0,0,0,0v12.1l0.5-0.5c0,0,0.1-0.1,0.1-0.1s0.1,0,0.1,0.1l0.7,0.7l0.7-0.7c0,0,0.1-0.1,0.1-0.1c0.1,0,0.1,0,0.1,0.1 l0.7,0.7L7,14.8c0,0,0.1-0.1,0.1-0.1c0.1,0,0.1,0,0.1,0.1L8,15.5l0.7-0.7c0,0,0.1-0.1,0.1-0.1c0.1,0,0.1,0,0.1,0.1l0.7,0.7l0.7-0.7 c0,0,0.1-0.1,0.1-0.1c0.1,0,0.1,0,0.1,0.1l0.7,0.7l0.7-0.7c0,0,0.1-0.1,0.1-0.1c0.1,0,0.1,0,0.1,0.1l0.5,0.5V3.2 c0-0.1-0.1-0.2-0.2-0.2h-2.1V2.6h2.1c0.3,0,0.6,0.3,0.6,0.6L13.1,15.9C13.1,15.8,13.1,15.9,13.1,15.9z M9.8,1.3l0.9-1H9.9V0h1.3v0.2 l-0.9,1h0.9v0.3H9.8L9.8,1.3L9.8,1.3z M10.9,9.8c0.1,0,0.2,0.1,0.2,0.2s-0.1,0.2-0.2,0.2H9.8c-0.1,0-0.2-0.1-0.2-0.2 c0-0.1,0.1-0.2,0.2-0.2H10.9z M9.8,12.1c0,0.1-0.1,0.2-0.2,0.2H6.4c-0.1,0-0.2-0.1-0.2-0.2c0-0.1,0.1-0.2,0.2-0.2h3.2 C9.7,11.9,9.8,12,9.8,12.1z M7,3.4l1.5-1.8H7V1.1h2.2v0.4L7.7,3.4h1.5v0.5H7V3.4z M6.2,10.2H5.1c-0.1,0-0.2-0.1-0.2-0.2 c0-0.1,0.1-0.2,0.2-0.2h1.1c0.1,0,0.2,0.1,0.2,0.2C6.4,10.1,6.3,10.2,6.2,10.2z"/></symbol>
    <symbol id="img-os-cancel"	viewBox="0 0 16 16"><path d="M14,15.9c0,0.1-0.1,0.1-0.1,0.1c-0.1,0-0.1,0-0.2,0c0,0-0.1,0-0.1-0.1l-0.8-0.8l-0.8,0.8 c-0.1,0.1-0.2,0.1-0.3,0l-0.8-0.8l-0.8,0.8C10,16,9.9,16,9.8,15.9L9,15.1l-0.8,0.8c-0.1,0.1-0.2,0.1-0.3,0L7,15.1l-0.8,0.8 C6.1,16,6,16,5.9,15.9l-0.8-0.8l-0.8,0.8C4.2,16,4,16,3.9,15.9l-0.8-0.8l-0.8,0.8c0,0,0,0-0.1,0.1c-0.1,0-0.1,0-0.2,0 C2,16,2,15.9,2,15.9c0,0,0-0.1,0-0.1v-15c0,0,0,0,0,0c0,0,0,0,0,0C1.9,0.3,2.3,0,2.7,0c0,0,0,0,0,0h10.7c0.4,0,0.7,0.3,0.7,0.7 L14,15.9C14.1,15.8,14.1,15.8,14,15.9z M13.6,0.7c0-0.1-0.1-0.2-0.2-0.2H2.7c0,0,0,0,0,0c-0.1,0-0.2,0.1-0.2,0.2c0,0,0,0,0,0 c0,0,0,0,0,0v14.4L3,14.6c0,0,0.1-0.1,0.2-0.1c0.1,0,0.1,0,0.2,0.1l0.8,0.8l0.8-0.8c0,0,0.1-0.1,0.2-0.1c0.1,0,0.1,0,0.2,0.1 l0.8,0.8l0.8-0.8c0,0,0.1-0.1,0.2-0.1c0.1,0,0.1,0,0.2,0.1L8,15.4l0.8-0.8c0,0,0.1-0.1,0.2-0.1c0.1,0,0.1,0,0.2,0.1l0.8,0.8l0.8-0.8 c0,0,0.1-0.1,0.2-0.1c0.1,0,0.1,0,0.2,0.1l0.8,0.8l0.8-0.8c0,0,0.1-0.1,0.2-0.1c0.1,0,0.1,0,0.2,0.1l0.6,0.6L13.6,0.7L13.6,0.7z M7.6,9.3h0.8v0.9H7.6V9.3z M7.6,5.8h0.8v2.8H7.6V5.8z"/></symbol>
    <symbol id="img-bill" 		viewBox="0 0 16 16"><path d="M12.9,5.4H9.2V0.5C9.2,0.2,9,0,8.7,0h-7C1.4,0,1.2,0.2,1.2,0.5v13.5c0,0,0,0,0,0c0,1.1,0.9,1.9,1.9,1.9h7 c1.1,0,1.9-0.9,1.9-1.9v-2.9h2.3c0.3,0,0.5-0.2,0.5-0.5V7.3C14.8,6.2,13.9,5.4,12.9,5.4z M3.1,14.9c-0.5,0-0.9-0.4-0.9-0.9 c0,0,0,0,0,0v-13h5.9v13c0,0.3,0.1,0.6,0.2,0.9H3.1z M11,7.3C11,7.3,11,7.3,11,7.3l0,6.8c0,0.5-0.4,0.9-0.9,0.9 c-0.5,0-0.9-0.4-0.9-0.9V6.4h2C11,6.7,11,7,11,7.3z M13.8,10.2H12V7.3c0,0,0,0,0,0c0-0.5,0.4-0.9,0.9-0.9c0.5,0,0.9,0.4,0.9,0.9 V10.2z M6.5,3.1H3.9c-0.3,0-0.5,0.2-0.5,0.5c0,0.3,0.2,0.5,0.5,0.5h2.5C6.8,4.1,7,3.9,7,3.6C7,3.3,6.8,3.1,6.5,3.1z M6.5,7H3.9 C3.6,7,3.4,7.2,3.4,7.5c0,0.3,0.2,0.5,0.5,0.5h2.5C6.8,8.1,7,7.8,7,7.5C7,7.2,6.8,7,6.5,7z M6.5,10.9H3.9c-0.3,0-0.5,0.2-0.5,0.5 c0,0.3,0.2,0.5,0.5,0.5h2.5C6.8,12,7,11.8,7,11.5C7,11.2,6.8,10.9,6.5,10.9z"/></symbol>
    <symbol id="img-track" 		viewBox="0 0 16 16"><path d="M6.6,5.4C6.8,5.3,6.9,5,6.8,4.7C6.7,4.5,6.4,4.4,6.1,4.5C4.4,5.4,3.7,7.4,4.1,9c0.5,1.9,2.2,3,3.8,3 c0.8,0,1.6-0.2,2.2-0.6c1.4-0.9,2.2-2.6,1.7-4.5c-0.1-0.3-0.4-0.4-0.6-0.3c-0.3,0.1-0.4,0.4-0.3,0.6c0.2,0.5,0.1,1.1,0,1.7 c-0.4,1.4-1.8,2.3-3.2,2.1c-1.1-0.1-2.2-1-2.5-2.1C4.7,7.3,5.6,5.9,6.6,5.4z M13.8,2.5c-0.1-0.2-0.2-0.3-0.3-0.4C12,0.8,10,0,7.9,0 c0,0-0.1,0-0.1,0C7.6,0.1,7.5,0.3,7.5,0.5c0,2.5,0,5,0,7.4c0,0.2,0.1,0.4,0.3,0.5c0.2,0.1,0.4,0,0.6-0.1l5.3-5.3 C13.8,2.9,13.8,2.7,13.8,2.5z M14.8,3.8c-0.1-0.2-0.5-0.3-0.7-0.1c-0.2,0.1-0.3,0.5-0.1,0.7C14.7,5.5,15,7,15,8.4 c-0.2,2.8-2.1,5.4-4.9,6.3c-3,0.9-6.8-0.3-8.4-3.7C1,9.6,0.9,8.1,1.1,6.7c0.6-2.9,2.8-4.9,5.2-5.4c0.1,0,0.2-0.1,0.3-0.2 c0.2-0.2,0.2-0.5,0-0.7C6.6,0.2,6.3,0.1,6.1,0.2C4.2,0.7,1.9,2,0.6,4.8c-1,2.2-1.4,6.8,2.6,9.7c1.2,0.9,2.6,1.4,4.1,1.5 c2.8,0.2,5.7-1.1,7.4-3.7C16,10.3,16.8,6.9,14.8,3.8z"/></symbol>
    <symbol id="img-facebook" 	viewBox="0 0 16 16"><path d="M9.4,16V8.7H12l0.4-2.8H9.4V4c0-0.8,0.2-1.4,1.5-1.4h1.6V0.1c-0.3,0-1.3-0.1-2.4-0.1 c-2.4,0-4,1.3-4,3.7v2.1H3.5v2.8h2.7V16H9.4L9.4,16z"/></symbol>
    <symbol id="img-twitter" 	viewBox="0 0 20 16"><path d="M9.9,5c0,0-5,0-8.5-4.2c0,0-1.9,2.9,1.3,5.4c0,0-1,0-1.9-0.5c0,0-0.2,3,3.2,4c0,0-1,0.3-1.8,0 c0,0,0.5,2.5,3.8,2.8c0,0-2.6,2.1-6.1,1.7c0,0,2.8,1.9,6,1.8C18.1,15.6,18,4,18,4s1.6-1.3,2-2.1c0,0-1.6,0.6-2.3,0.6 c0,0,1.3-0.9,1.8-2.2c0,0-1.8,0.9-2.6,0.9c0,0-1-1.3-3-1.3C11.9,0,9.3,1.6,9.9,5z"/></symbol>
    <symbol id="img-googleplus" viewBox="0 0 25 16"><path d="M21.2,9.9v4.4h-2.9V9.9h-3.9V7.1h3.8V2.9h2.9v4.2H25v2.8L21.2,9.9L21.2,9.9z M6.7,16C6.2,16,0.1,16.1,0,8.6V7.6 C0,6.8-0.1,0,6.4,0c3.7,0,5.7,1.8,6.1,5.2H9.5C9.2,3.4,8.2,2.6,6.6,2.6c-4.1,0-3.3,5.9-3.3,5.9c0,1.6,0.3,2.9,0.9,3.7 c1.2,1.7,4.2,1.5,5.3,0.5V10H6.6V7.6h6.1v6.2C11.5,15.2,9.2,16,6.7,16z"/></symbol>
    <symbol id="img-linkedin" 	viewBox="0 0 16 16"><path d="M14.9,16H1.1C0.5,16,0,15.5,0,14.9V1.1C0,0.5,0.5,0,1.1,0h13.8C15.5,0,16,0.5,16,1.1v13.8 C16,15.5,15.5,16,14.9,16z M2.3,13.7h2.4V6H2.3V13.7z M3.6,2.2c-0.7,0-1.3,0.6-1.3,1.3s0.6,1.3,1.3,1.3c0.7,0,1.3-0.6,1.3-1.3 S4.3,2.2,3.6,2.2z M13.7,10.2c0-3.7-1-4.3-2.8-4.3c-1.4,0-2.1,0.7-2.3,0.9V6H6.3v7.7h2.3V9.9c0-1.4,0.6-2,1.5-2 c0.8,0,1.2,0.7,1.2,2.3v3.5h2.4L13.7,10.2L13.7,10.2z"/></symbol>
    <symbol id="img-pinterest" 	viewBox="0 0 16 16"><path d="M8,16c-0.9,0-1.7-0.1-2.4-0.4c0.2-0.2,0.8-1.1,1-1.8c0.2-0.8,0.6-2.2,0.6-2.2s0.4,0.9,1.8,0.9 s4.1-1.4,4.1-5c0-1.7-1.4-4.5-5-4.5S3,5.5,3,7.8c0,2.3,1.7,3.1,1.7,3.1L5,9.8c0,0-0.7-0.6-0.7-2S5.3,4.4,8,4.4s3.3,2.1,3.3,3.3 s-0.6,3.6-2.6,3.6c-0.9,0-1.2-0.6-1.2-1.2s0.7-2.4,0.7-3S7.9,6,7.3,6S5.8,6.7,5.8,8c0,0.8,0.3,1.2,0.3,1.2s-1,4.1-1,4.9 c0,0.5,0,1.1,0.1,1.4C2.1,14.3,0,11.4,0,8c0-4.4,3.6-8,8-8s8,3.6,8,8S12.4,16,8,16z"/></symbol>
    <symbol id="img-whatsapp" 	viewBox="0 0 16 16"><path d="M8.1,15.6c-1.4,0-2.7-0.4-3.8-1L0,16l1.4-4.2c-0.7-1.2-1.1-2.6-1.1-4C0.3,3.5,3.8,0,8.1,0 C12.5,0,16,3.5,16,7.8C16,12.1,12.5,15.6,8.1,15.6z M8.1,1.2c-3.6,0-6.6,2.9-6.6,6.6c0,1.4,0.5,2.8,1.3,3.8L2,14.1l2.5-0.8 c1,0.7,2.3,1.1,3.6,1.1c3.6,0,6.6-2.9,6.6-6.6C14.7,4.2,11.8,1.2,8.1,1.2z M10.3,11.4c-2.3-0.1-5.9-2.9-6-5.4 C4.2,4.3,5.6,4.2,5.9,4.2c0.4,0,0.4,0.6,1,1.7c0.2,0.4-0.8,1.1-0.5,1.4c0.1,0.2,0.5,0.8,1.1,1.3c0.9,0.9,1.7,1,1.9,0.9 c0.4-0.1,0.5-0.8,1-0.9c0.2,0,1.8,0.7,1.8,0.9C12.2,10.9,11,11.5,10.3,11.4z"/></symbol>
    <symbol id="img-tumblr" 	viewBox="0 0 16 16"><path d="M3.4,4.4c0,0,3.1-1.2,3.1-4.4H9v4h2.9v2.8H9c0,0,0,4,0,4.9c0,2.1,2.8,1.2,2.8,1.2l0.8,2.2 c0,0-1.3,0.9-2.9,0.9c-1.6,0-4.4-1-4.4-4.4s0-4.8,0-4.8H3.4L3.4,4.4L3.4,4.4z"/></symbol>

    <!--
	Ícones opcionais
	* Caso exclua um destes sprites, lembre-se de apagar a chamada nas inserções
	-->
    <symbol id="i-menu"     viewBox="0 0 16 16"><path d="M14.4,3.2H1.6C0.7,3.2,0,2.5,0,1.6v0C0,0.7,0.7,0,1.6,0l12.8,0C15.3,0,16,0.7,16,1.6v0 C16,2.5,15.3,3.2,14.4,3.2z M16,14.4L16,14.4c0-0.9-0.7-1.6-1.6-1.6H1.6c-0.9,0-1.6,0.7-1.6,1.6v0C0,15.3,0.7,16,1.6,16h12.8 C15.3,16,16,15.3,16,14.4z M16,8L16,8c0-0.9-0.7-1.6-1.6-1.6H1.6C0.7,6.4,0,7.1,0,8v0c0,0.9,0.7,1.6,1.6,1.6h12.8 C15.3,9.6,16,8.9,16,8z"/></symbol>
    <symbol id="i-search"   viewBox="0 0 16 16"><path d="M6.9,13.9c1.7,0,3.3-0.6,4.5-1.6l3.6,3.6c0.2,0.2,0.6,0.2,0.9,0c0.2-0.2,0.2-0.6,0-0.9l-3.6-3.6 c1-1.2,1.6-2.8,1.6-4.5c0-3.8-3.1-6.9-6.9-6.9S0,3.1,0,6.9S3.1,13.9,6.9,13.9z M6.9,1.2c3.2,0,5.7,2.6,5.7,5.7c0,1.6-0.6,3-1.7,4.1 c0,0,0,0,0,0c0,0,0,0,0,0c-1,1-2.5,1.7-4.1,1.7c-3.2,0-5.7-2.6-5.7-5.7S3.8,1.2,6.9,1.2z"/></symbol>
    <symbol id="i-cart"     viewBox="0 0 16 16"><path d="M15.2,15.5l-0.9-11c0-0.2-0.2-0.4-0.4-0.4h-2V3.9C11.9,1.8,10.2,0,8,0S4.1,1.8,4.1,3.9v0.2h-2 c-0.2,0-0.4,0.2-0.4,0.4L0.8,15.6c0,0.1,0,0.2,0.1,0.3C1,16,1.1,16,1.2,16h13.7c0,0,0,0,0,0C15,16,15.2,15.8,15.2,15.5 C15.2,15.6,15.2,15.5,15.2,15.5z M4.9,3.9c0-1.7,1.4-3.1,3.1-3.1s3.1,1.4,3.1,3.1v0.2H4.9V3.9z M1.6,15.2L2.5,4.9h1.6v0.6 C3.8,5.7,3.7,5.9,3.7,6.2C3.7,6.7,4,7,4.5,7s0.8-0.4,0.8-0.8c0-0.3-0.2-0.6-0.4-0.7V4.9h6.3v0.6c-0.2,0.1-0.4,0.4-0.4,0.7 c0,0.4,0.4,0.8,0.8,0.8s0.8-0.4,0.8-0.8c0-0.3-0.2-0.6-0.4-0.7V4.9h1.6l0.9,10.3H1.6L1.6,15.2z"/></symbol>
    <symbol id="i-wish"     viewBox="0 0 16 16"><path d="M2,9.2C0.6,7.6,0,5.9,0,4.4C0,1.7,1.5,0,3.8,0C6,0,6.7,1.1,8,2.8C9.3,1.1,10,0,12.2,0 C14.5,0,16,1.7,16,4.4c0,1.5-0.6,3.2-2,4.8L8,16L2,9.2z"/></symbol>
    <symbol id="i-user"     viewBox="0 0 16 16">
        <path class="female" d="M8,0C6.2,0,3.7,1.2,3.7,3.9v1.5C3.1,5.4,2.7,6,2.7,6.6s0.5,1.1,1.1,1.2c-0.1,2.4-0.8,5.6-2.4,6 C1.6,15,2.6,16,3.4,16h9.3c0.5,0,1.8-0.6,2.3-2.2c-1.7-0.3-2.7-3.7-2.7-6c0.6-0.1,1.1-0.6,1.1-1.2s-0.5-1.1-1.1-1.2V3.9 C12.3,1.9,11.4,0,8,0z M8.7,13.3c0,0.6-1.5,0.5-1.5,0v-0.9c0.1,0.1,1.3,0.1,1.5,0V13.3z M12.6,6.6c0,0.3-0.2,0.6-0.6,0.6 c-0.1,0-0.5,0-0.5,0v1.4c0,1.8-1.4,3.2-3.2,3.2H7.6c-1.8,0-3.2-1.4-3.2-3.2V7.1l-0.5,0c-0.3,0-0.6-0.2-0.6-0.6S3.6,6,3.9,6l0.5,0 V4.3c2.9,0.6,3.7-1,4.7-1c1,0,1.6,1.8,1.6,1.8c0.8-0.4,0.8-0.8,0.8-1V6c0,0,0.5,0,0.5,0C12.4,6,12.6,6.3,12.6,6.6z M8,8.2 c0.3,0,0.5-0.2,0.5-0.4c0-0.2-0.2-0.4-0.5-0.4c-0.3,0-0.5,0.2-0.5,0.4C7.5,8,7.7,8.2,8,8.2z M10,6C9.7,6,9.4,6.3,9.4,6.6 S9.7,7.1,10,7.1c0.3,0,0.5-0.2,0.5-0.5S10.3,6,10,6z M6.6,6.6C6.6,6.3,6.3,6,6,6S5.5,6.3,5.5,6.6S5.7,7.1,6,7.1S6.6,6.9,6.6,6.6z M10.1,8.8c-0.2-0.1-0.4,0-0.4,0.2C9.3,9.6,8.7,10,8,10c-0.7,0-1.3-0.4-1.6-1C6.3,8.8,6.1,8.7,5.9,8.8C5.7,8.8,5.7,9,5.7,9.2 C6.2,10.1,7,10.7,8,10.7c1,0,1.8-0.6,2.3-1.4C10.3,9,10.3,8.8,10.1,8.8z"/>
        <path class="male" d="M8,0C6.2,0,3.7,1.2,3.7,3.9v1.5C3.1,5.4,2.7,6,2.7,6.6s0.5,1.1,1.1,1.2v0.7c0,1.8,1.2,3.3,2.9,3.8 v0.3c-2.8,0-3.8,3.4-3.8,3.4h10.5c0,0-1.2-3.4-3.8-3.4v-0.3c1.6-0.5,2.9-2,2.9-3.8V7.8c0.6-0.1,1.1-0.6,1.1-1.2s-0.5-1.1-1.1-1.2 V5.1c2-0.4,2.2-1.4,2.2-1.8C12.8,3.6,11.4,0,8,0z M8.7,13.3c0,0.6-1.5,0.5-1.5,0v-0.9c0.1,0.1,1.3,0.1,1.5,0V13.3z M12.6,6.6 c0,0.3-0.2,0.6-0.6,0.6c-0.1,0-0.5,0-0.5,0v1.4c0,1.8-1.4,3.2-3.2,3.2H7.6c-1.8,0-3.2-1.4-3.2-3.2V7.1l-0.5,0 c-0.3,0-0.6-0.2-0.6-0.6S3.6,6,3.9,6l0.5,0l0.8-2.2C6,4.3,7.8,5.5,11.6,5.2V6c0,0,0.5,0,0.5,0C12.4,6,12.6,6.3,12.6,6.6z M8,8.2 c0.3,0,0.5-0.2,0.5-0.4c0-0.2-0.2-0.4-0.5-0.4c-0.3,0-0.5,0.2-0.5,0.4C7.5,8,7.7,8.2,8,8.2z M10,6C9.7,6,9.4,6.3,9.4,6.6 S9.7,7.1,10,7.1c0.3,0,0.5-0.2,0.5-0.5S10.3,6,10,6z M6.6,6.6C6.6,6.3,6.3,6,6,6S5.5,6.3,5.5,6.6S5.7,7.1,6,7.1S6.6,6.9,6.6,6.6z M10.1,8.8c-0.2-0.1-0.4,0-0.4,0.2C9.3,9.6,8.7,10,8,10c-0.7,0-1.3-0.4-1.6-1C6.3,8.8,6.1,8.7,5.9,8.8C5.7,8.8,5.7,9,5.7,9.2 C6.2,10.1,7,10.7,8,10.7c1,0,1.8-0.6,2.3-1.4C10.3,9,10.3,8.8,10.1,8.8z"/>
    </symbol>
    <!-- Tema VCP Automação -->
    <symbol viewBox="0 0 32 30" id="z-cart"><path d="M1 0a1 1 0 000 2h3.892l.838 3.138a.85.85 0 00.024.12l3.2 11.96c.002.01.006.02.01.03l1.07 4.01A.998.998 0 0011 22h16a1 1 0 000-2H11.768l-.561-2.104 17.843-.898a1 1 0 00.933-.818l2-11A1 1 0 0031 4H7.497L6.626.742A.998.998 0 005.66 0H1zm12 8a1 1 0 011 1v4a1 1 0 01-2 0V9a1 1 0 011-1zm5.999 0a1 1 0 011 1v4a1 1 0 01-2 0V9a1 1 0 011-1zm6 0a1 1 0 011 1v4a1 1 0 01-2 0V9a1 1 0 011-1zm-12 16a3 3 0 100 6 3 3 0 000-6zm12 0a3 3 0 100 6 3 3 0 000-6z"/></symbol>
    <symbol viewBox="0 0 26 20" id="z-chat"><path d="M18.875 7c0-3.781-4.04-6.875-8.938-6.875C4.997.125 1 3.219 1 7c0 1.504.602 2.836 1.633 3.953-.602 1.332-1.547 2.363-1.547 2.363a.412.412 0 00-.086.387c.086.129.172.172.344.172 1.547 0 2.836-.516 3.781-1.074 1.375.687 3.05 1.074 4.813 1.074 4.898 0 8.937-3.05 8.937-6.875zm5.242 9.453c.988-1.117 1.633-2.45 1.633-3.953 0-2.836-2.32-5.328-5.586-6.36.043.301.086.602.086.86 0 4.555-4.64 8.25-10.313 8.25-.472 0-.945 0-1.374-.043 1.332 2.45 4.511 4.168 8.25 4.168 1.761 0 3.394-.387 4.769-1.074.945.558 2.234 1.074 3.824 1.074.13 0 .258-.043.301-.172.043-.129.043-.3-.086-.387 0 0-.945-1.03-1.504-2.363z"/></symbol>
    <symbol viewBox="0 0 20 16" id="z-menu"><rect width="20" height="2" rx="1" fill="var(--primary)"/><path d="M0 8C0 7.44772 0.447715 7 1 7H12C12.5523 7 13 7.44772 13 8C13 8.55228 12.5523 9 12 9H1C0.447715 9 0 8.55228 0 8Z" fill="#211F20"/><path d="M16 8C16 7.44772 16.4477 7 17 7H19C19.5523 7 20 7.44772 20 8C20 8.55228 19.5523 9 19 9H17C16.4477 9 16 8.55228 16 8Z" fill="var(--primary)"/><rect y="14" width="20" height="2" rx="1" fill="var(--primary)"/></symbol>
    <symbol viewBox="0 0 16 16" id="z-phone"><path d="M15.531 11.313l-3.5-1.5a.905.905 0 00-.312-.063.76.76 0 00-.563.281l-1.562 1.906a11.597 11.597 0 01-5.531-5.53l1.906-1.563a.774.774 0 00.281-.594.885.885 0 00-.063-.281l-1.5-3.5A.79.79 0 003.97 0c-.031 0-.094.031-.156.031l-3.25.75A.733.733 0 000 1.5 14.47 14.47 0 0014.5 16a.733.733 0 00.719-.563l.75-3.25v-.156a.817.817 0 00-.438-.719z"/></symbol>
    <symbol viewBox="0 0 31 32" id="z-user"><path d="M15.5 6.5c-3.313 0-6 2.688-6 6 0 3.313 2.688 6 6 6 3.313 0 6-2.688 6-6 0-3.313-2.688-6-6-6zm0 9c-1.688 0-3-1.313-3-3a3 3 0 013-3c1.625 0 3 1.375 3 3a3 3 0 01-3 3zm0-15C6.937.5 0 7.438 0 16c0 8.563 6.938 15.5 15.5 15.5C24.063 31.5 31 24.562 31 16 31 7.437 24.062.5 15.5.5zm0 28c-3.125 0-6-1.125-8.188-3 .938-1.438 2.563-2.438 4.375-2.438 1.313.375 2.563.563 3.813.563 1.188 0 2.438-.188 3.75-.563 1.813.063 3.438 1 4.375 2.438a12.51 12.51 0 01-8.125 3zm10.125-5.25c-1.5-1.938-3.875-3.25-6.563-3.25-.625 0-1.625.625-3.562.625-2 0-3-.625-3.625-.625-2.688 0-5.063 1.313-6.563 3.25C3.813 21.25 3 18.75 3 16 3 9.125 8.563 3.5 15.5 3.5 22.375 3.5 28 9.125 28 16c0 2.75-.875 5.25-2.375 7.25z"/></symbol>
    <symbol viewBox="0 0 20 20" id="z-whatsapp"><path d="M16.328 2.96A9.386 9.386 0 009.582.126C4.34.125.043 4.422.043 9.665a9.55 9.55 0 001.289 4.769L0 19.375l5.027-1.29c1.418.731 2.965 1.161 4.555 1.161 5.285 0 9.668-4.297 9.668-9.539 0-2.578-1.117-4.941-2.922-6.746zM9.582 17.614a7.947 7.947 0 01-4.039-1.117l-.258-.172-3.008.817.817-2.922-.215-.301a8.266 8.266 0 01-1.203-4.254c0-4.34 3.566-7.906 7.949-7.906 2.105 0 4.082.816 5.586 2.32 1.504 1.504 2.406 3.48 2.406 5.629 0 4.34-3.652 7.906-8.035 7.906zm4.383-5.93a53.059 53.059 0 00-1.633-.773c-.215-.086-.387-.129-.559.13-.128.214-.601.773-.73.944-.172.13-.3.172-.516.043-1.418-.687-2.32-1.246-3.265-2.836-.258-.43.258-.386.687-1.289.086-.172.043-.3 0-.43-.043-.128-.558-1.288-.73-1.761-.215-.473-.387-.43-.559-.43h-.43a.806.806 0 00-.644.301c-.215.258-.816.816-.816 1.977 0 1.203.816 2.32.945 2.492.129.129 1.676 2.535 4.082 3.566 1.504.688 2.105.73 2.879.602.43-.043 1.375-.559 1.59-1.117.214-.559.214-1.032.129-1.118-.043-.129-.215-.171-.43-.3z"/></symbol>
    <symbol viewBox="0 0 10 6.45" id="z-down"><path d="M4.48 6.24a.75.75 0 001 0L9.77 2a.72.72 0 000-1.06L9.08.21A.77.77 0 008 .21l-3 3-3-3a.77.77 0 00-1.08 0L.23.93A.72.72 0 00.23 2z"/></symbol>
    <symbol viewBox="0 0 39 39" id="z-20years"><path d="M23.8 19.5c.4 0 .7-.2.9-.5.2-.3.3-.9.3-1.6v-2.5c0-.7-.1-1.2-.3-1.6-.2-.4-.5-.5-.9-.5s-.7.2-.9.5c-.2.3-.3.8-.3 1.5v2.5c0 .7.1 1.3.3 1.6.2.4.5.6.9.6zm-1.7 5.4c-.4 0-.6.1-.8.4-.2.3-.3.7-.3 1.2s.1.9.3 1.2c.2.3.5.4.8.4.4 0 .6-.1.8-.4.2-.3.3-.7.3-1.3 0-.5-.1-.9-.3-1.2-.1-.2-.4-.3-.8-.3zm-10.7 2c-.2.1-.3.3-.3.6 0 .2.1.4.2.5.1.1.3.2.6.2.2 0 .4-.1.6-.2.2-.1.3-.2.4-.4v-.9h-.6c-.4-.1-.7 0-.9.2z"/><path d="M35.3 23l3.7-3.5-3.5-3.1 1.9-4.5-4.2-1.4V5.6l-4.4.5-1.9-4.7-4 2.1L19.4 0l-2.8 3.5-4.7-2.1-1.2 4.5-5.1-.3.5 4.7L1.4 12l2.1 4L0 19.5l3.5 3.1L1.4 27l4.4 1.4-.2 4.9 4.7-.5 1.6 4.7 4.2-2.1 3.3 3.5 3-3.5 4.4 2.1 1.4-4.5 4.9.2-.2-4.7 4.4-1.6-2-3.9zm-21.2 5.9H13c0-.1-.1-.2-.1-.5-.3.4-.8.5-1.3.5s-.9-.1-1.2-.4c-.3-.3-.5-.6-.5-1 0-.5.2-.9.6-1.2.4-.3.9-.4 1.6-.4h.7v-.3c0-.2-.1-.4-.2-.6-.1-.2-.3-.2-.6-.2-.2 0-.4.1-.6.2-.2.1-.2.3-.2.5h-1.1c0-.3.1-.5.3-.7.2-.2.4-.4.7-.5.3-.1.6-.2 1-.2.6 0 1 .1 1.3.4.3.3.5.7.5 1.2v2.2c0 .3.1.7.2 1zm4.9 0h-1.1v-3.1c0-.3-.1-.5-.2-.7-.1-.1-.3-.2-.6-.2-.4 0-.8.2-1 .6v3.4H15v-4.8h1v.6c.4-.4.8-.6 1.4-.6 1 0 1.5.6 1.5 1.7v3.1zm.2-7.8h-6.9v-1.5l3.2-3.4c.8-.9 1.2-1.6 1.2-2.1 0-.4-.1-.8-.3-1-.2-.2-.5-.3-.8-.3-.4 0-.6.2-.9.5-.2.3-.3.7-.3 1.1H12c0-.6.2-1.2.5-1.7s.7-.9 1.3-1.2 1.1-.4 1.8-.4c1.1 0 1.9.2 2.5.7.6.5.9 1.2.9 2.1 0 .4-.1.8-.2 1.1-.1.4-.4.8-.7 1.2-.3.4-.8 1-1.5 1.6l-1.3 1.5h3.9v1.8zm1.1-5.9c0-1.3.3-2.4.9-3.1.6-.7 1.5-1.1 2.6-1.1s2 .4 2.6 1.1c.6.7.9 1.8.9 3.1V17c0 1.3-.3 2.4-.9 3.1-.6.7-1.5 1.1-2.5 1.1-1.1 0-2-.4-2.6-1.1-.6-.7-.9-1.8-.9-3.1v-1.8zm3.8 12.6c-.2.4-.4.7-.8.9-.3.2-.7.3-1.2.3-.7 0-1.2-.2-1.6-.7-.4-.5-.6-1.1-.6-1.8v-.1c0-.5.1-.9.3-1.3.2-.4.4-.7.8-.9.3-.2.7-.3 1.2-.3.6 0 1.2.2 1.6.6.4.4.6 1 .7 1.7v.3c-.2.5-.2.9-.4 1.3zm4.4.8c-.4.3-.8.4-1.4.4-.4 0-.7-.1-1-.2-.3-.1-.5-.3-.7-.6-.2-.2-.3-.5-.3-.8h1c0 .3.1.5.3.6.2.1.4.2.7.2.3 0 .5-.1.6-.2.1-.1.2-.3.2-.4 0-.2-.1-.3-.2-.4-.2-.1-.4-.2-.8-.3-.4-.1-.7-.2-.9-.3-.5-.3-.8-.6-.8-1.1 0-.4.2-.8.5-1 .3-.3.8-.4 1.3-.4.6 0 1 .1 1.4.4.4.3.5.7.5 1.1h-1.1c0-.2-.1-.4-.2-.5-.2-.1-.4-.2-.6-.2-.2 0-.4.1-.6.2-.1.1-.2.3-.2.4 0 .2.1.3.2.4.1.1.4.2.8.3.4.1.8.2 1 .3.2.1.4.3.5.5.1.2.2.4.2.7.1.3-.1.6-.4.9z"/></symbol>
    <symbol viewBox="0 0 31 31" id="z-brasil"><path d="M30.523 13.274c-.19.453-.527.79-.951 1.033a8.645 8.645 0 01-.725.378c-.214.09-.296.26-.358.461-.136.457-.338.86-.811 1.053-.054.025-.095.09-.124.148-.04.079-.045.181-.098.252-.157.197-.186.423-.153.658.058.395-.07.744-.23 1.09-.029.053-.05.111-.083.16a2.71 2.71 0 00-.477 1.44c-.029.63-.37 1.099-.902 1.416-.284.164-.444.395-.572.69a4.622 4.622 0 01-.564.98c-.412.527-.98.658-1.605.42a.851.851 0 00-.758.057c-.255.14-.543.214-.815.321-.09.037-.181.074-.263.124-.375.21-.729.481-1.165.403-.07.551-.107 1.07-.202 1.58-.083.456-.334.835-.667 1.164a.575.575 0 00-.14.309c-.058.56-.305.97-.852 1.172a.435.435 0 00-.194.173c-.18.28-.399.51-.7.666-.07.033-.123.124-.16.198-.194.399-.432.765-.782 1.045-.461.37-1.017.436-1.462.185-.444-.26-.708-.757-.551-1.325.136-.477-.148-.662-.412-.88-.317-.26-.675-.473-1.008-.712-.614-.44-.688-1.205-.19-1.765.074-.082.103-.206.148-.308.074-.177.112-.391.235-.531.317-.358.671-.687 1.03-1.041a1.434 1.434 0 01-.347-1.09c.009-.05-.049-.107-.074-.16-.09-.215-.173-.433-.271-.643-.042-.082-.103-.18-.182-.213-.827-.35-1.173-.95-1.053-1.84a.657.657 0 00-.021-.267c-.194-.613-.095-1.177.28-1.7.02-.028.037-.06.066-.102-.206-.177-.4-.321-.675-.395a2.104 2.104 0 01-.853-.424c-.177-.152-.263-.432-.341-.67-.087-.247-.12-.515-.181-.77-.017-.05-.079-.127-.12-.131-.448-.021-.745-.346-1.115-.523a6.725 6.725 0 00-.688-.271c-.32-.112-.654-.198-.963-.33-.482-.201-.712-.609-.82-1.098-.016-.074-.036-.144-.07-.284-.11.074-.222.111-.271.185-.28.449-.696.621-1.194.597-.477-.025-.95-.078-1.42-.124-.103-.012-.23-.024-.3-.086-.305-.26-.688-.321-1.034-.473-.383-.173-.753-.391-1.132-.585-.354-.185-.482-.543-.54-.925-.012-.078-.04-.185-.102-.226-.642-.432-.63-1.181-.387-1.728.255-.58.486-1.185.831-1.708.461-.695 1.058-1.259 1.997-1.201.045.004.09 0 .09 0 .046-.362.095-.708.132-1.058a.158.158 0 00-.045-.115c-.4-.44-.379-.962-.313-1.497a.486.486 0 00-.012-.218c-.243-.712.008-1.309.724-1.543.527-.177 1.087-.255 1.63-.375.054-.012.108-.016.157-.032.696-.186 1.227.053 1.647.613.074.094.193.148.292.222.02-.03.045-.054.07-.083-.066-.07-.128-.144-.202-.205-.25-.214-.473-.449-.551-.782C6.44 1.322 6.963.635 7.76.582c.35-.025.713.094 1.07.136a8.4 8.4 0 00.964.074c.111 0 .26-.09.33-.186C10.58.014 11.35-.17 12.017.17c.375.19.552.523.618.922.016.082.016.181.061.239.31.386.289.81.17 1.25-.013.041-.022.087-.042.181.33-.16.663-.185.848-.535.264-.501.856-.72 1.457-.534.363.115.704.296 1.079.46.103-.131.218-.28.337-.423.717-.844 1.697-.852 2.421-.017.136.16.255.338.375.51.156.227.313.428.551.585.486.32.585 1.102.251 1.686-.049.083-.102.16-.18.284.308-.02.567.103.864-.07.477-.275 1.074-.127 1.523.338.173.185.33.304.605.312.342.013.61.23.84.49.053.058.14.128.214.123.428-.012.778.165 1.087.44a.616.616 0 00.424.173c.325.005.65.037.971.075.589.065 1.062.35 1.412.818.181.239.342.498.482.765.115.214.26.346.502.367.099.008.194.037.288.061 1.178.284 1.721.95 1.812 2.156.066.86-.14 1.666-.465 2.448z"/></symbol>
    <symbol viewBox="0 0 40 28" id="z-box"><path d="M15.01 15.536l-8.73-1.86v9.607l.3.433 13.893 4.24v-14.15l-5.462 1.73zm6.108-3.289l9.033 1.818L40 10.127l-.086-.866-7.742-1.125 3.527-6.405-.344-.65L20.645 0l-.43.216-2.925 5.41L13.505.433l-.43-.173L1.85 2.077l-.3.693 4.214 6.015L0 10.17v.866l14.968 3.159 6.15-1.948zm-3.785-5.366l13.205 1.601-9.549 2.943-13.591-2.38 9.935-2.164zm4.473 6.838V28l9.893-4.76.258-.39V14.8l-1.634.65-8.517-1.731z"/></symbol>
    <symbol viewBox="0 0 33 33" id="z-lock"><path d="M32.107 8.121s-1.061-5.071-5.648-6.853C24.303.445 20.367.034 16.5 0c-3.867.034-7.803.445-9.96 1.268C1.955 3.05.894 8.12.894 8.12.21 11-.03 13.913.003 16.483c-.034 2.604.172 5.517.89 8.395 0 0 1.061 5.072 5.648 6.854 2.156.822 6.092 1.234 9.959 1.268 3.867-.034 7.803-.411 9.96-1.268 4.586-1.782 5.647-6.854 5.647-6.854.684-2.878.924-5.79.89-8.36.034-2.605-.172-5.518-.89-8.397zm-9.275 14.564c0 .549-.377.994-.89.994h-10.85c-.479 0-.89-.445-.89-.994l-.068-7.299c0-.48.445-.89.993-.89h1.848v-1.68a3.522 3.522 0 013.525-3.53 3.522 3.522 0 013.525 3.53v1.68h1.848c.548 0 .993.376.993.89l-.034 7.3z"/></symbol>
    <symbol viewBox="0 0 32 32" id="z-help"><path d="M16.003 25.985a7.022 7.022 0 01-4.59-1.718A6.993 6.993 0 019.07 19.97l-.985-6.877a7.864 7.864 0 01-.12-1.143c0-2.127.846-4.167 2.354-5.671a8.047 8.047 0 0111.367 0 8.012 8.012 0 012.354 5.67 7.87 7.87 0 01-.12 1.144l-.985 6.877a6.993 6.993 0 01-2.342 4.298 7.022 7.022 0 01-4.59 1.718zm11.936-15.72a12.023 12.023 0 00-4.051-7.344 12.072 12.072 0 00-15.75 0 12.024 12.024 0 00-4.05 7.344 6.025 6.025 0 00-3.222 2.589 6.004 6.004 0 001.222 7.658 6.036 6.036 0 003.868 1.462V11.95c0-2.66 1.059-5.21 2.943-7.09a10.058 10.058 0 017.104-2.936c2.665 0 5.22 1.057 7.105 2.937a10.015 10.015 0 012.942 7.089v14.036a4.006 4.006 0 01-1.177 2.835 4.023 4.023 0 01-2.841 1.175h-2.01l-2.01-2.005h-6.028V32h10.048a6.035 6.035 0 004.262-1.762 6.01 6.01 0 001.766-4.253v-4.372a6.026 6.026 0 002.876-2.23 6.006 6.006 0 00-.074-6.93 6.027 6.027 0 00-2.923-2.168v-.02z"/></symbol>
    <symbol viewBox="0 0 46 32" id="z-email"><path d="M1.468 0C.636 0 0 .693 0 1.6v28.8c0 .907.636 1.6 1.468 1.6h43.064c.832 0 1.468-.693 1.468-1.6V1.6c0-.907-.636-1.6-1.468-1.6H1.468zm4.013 3.2h34.99L23 19.2 5.48 3.2zM2.936 5.013L14.387 15.52 2.937 26.773V5.013zm40.128 0v21.76L31.613 15.52l11.45-10.507zM16.687 17.6l5.383 4.907c.538.48 1.37.48 1.909 0l5.383-4.907 11.402 11.147H5.285L16.687 17.6z"/></symbol>
    <symbol viewBox="0 0 23 24" id="z-send"><path d="M7.906 10.578h7.188c.36 0 .719-.314.719-.719v-.718c0-.36-.36-.72-.72-.72H7.907c-.404 0-.718.36-.718.72v.718a.71.71 0 00.718.72zm-.718 3.594a.71.71 0 00.718.719h7.188a.74.74 0 00.719-.72v-.718c0-.36-.36-.719-.72-.719H7.907c-.404 0-.718.36-.718.72v.718zm4.312 5.48a3.34 3.34 0 01-2.111-.718L0 12.15v9.569c0 1.213.943 2.156 2.156 2.156h18.688A2.157 2.157 0 0023 21.719V12.15l-9.434 6.784a3.306 3.306 0 01-2.066.718zM22.146 8.197c-.404-.27-.763-.584-1.302-.988V5.188c0-1.168-.989-2.157-2.157-2.157h-3.503l-.405-.27C14.016 2.224 12.533.876 11.5.876c-1.078 0-2.56 1.348-3.324 1.887l-.405.27H4.313a2.157 2.157 0 00-2.157 2.155V7.21c-.584.404-.943.719-1.347.988A2.221 2.221 0 000 9.904v.494l4.313 3.1v-8.31h14.375v8.31l4.312-3.1v-.494c0-.674-.314-1.258-.854-1.707z"/></symbol>
    <symbol viewBox="0 0 18 15" id="z-truck"><path d="M17.063 10.375a.44.44 0 01.3.137.44.44 0 01.137.3v.876a.453.453 0 01-.137.328.411.411 0 01-.3.109H15.75c0 .738-.273 1.367-.766 1.86a2.54 2.54 0 01-1.859.765c-.738 0-1.367-.246-1.86-.766-.519-.492-.765-1.12-.765-1.859H7c0 .738-.273 1.367-.766 1.86a2.54 2.54 0 01-1.859.765c-.738 0-1.367-.246-1.86-.766-.519-.492-.765-1.12-.765-1.859h-.438c-.382 0-.683-.11-.93-.383-.273-.246-.382-.547-.382-.93v-8.75c0-.355.11-.656.383-.93C.629.888.93.75 1.313.75h8.75c.355 0 .656.137.93.383.245.273.382.574.382.93v1.312h1.203c.356 0 .656.137.93.383l2.734 2.734c.246.274.383.574.383.93v2.953h.438zM4.374 13.438c.355 0 .656-.11.93-.383.246-.246.383-.547.383-.93 0-.355-.137-.656-.383-.93-.274-.246-.575-.383-.93-.383-.383 0-.684.137-.93.383a1.239 1.239 0 00-.382.93c0 .383.109.684.382.93.246.273.547.383.93.383zm8.75 0c.355 0 .656-.11.93-.383.246-.246.383-.547.383-.93 0-.355-.137-.656-.383-.93-.274-.246-.575-.383-.93-.383-.383 0-.684.137-.93.383a1.24 1.24 0 00-.383.93c0 .383.11.684.383.93.246.273.547.383.93.383zm2.188-5.688v-.328l-2.735-2.734h-1.203V7.75h3.938z"/></symbol>
    <symbol viewBox="0 0 11 15" id="z-list"><path d="M9.188 2.5c.355 0 .656.137.93.383.245.273.382.574.382.93v9.624c0 .383-.137.684-.383.93a1.24 1.24 0 01-.93.383H1.314c-.383 0-.684-.11-.93-.383-.274-.246-.383-.547-.383-.93V3.813c0-.356.11-.657.383-.93.246-.246.547-.383.93-.383H3.5c0-.465.164-.875.52-1.23.328-.329.738-.52 1.23-.52.465 0 .875.191 1.23.52.329.355.52.765.52 1.23h2.188zm-6.563 9.844a.64.64 0 00.465-.192.66.66 0 00.191-.464c0-.165-.082-.329-.191-.465-.137-.11-.3-.192-.465-.192a.66.66 0 00-.465.192.64.64 0 00-.191.464c0 .192.054.356.191.465.11.137.274.192.465.192zm0-2.625a.64.64 0 00.465-.192.66.66 0 00.191-.464c0-.165-.082-.329-.191-.465-.137-.11-.3-.192-.465-.192a.66.66 0 00-.465.192.64.64 0 00-.191.464c0 .192.054.356.191.465.11.137.274.192.465.192zm0-2.625a.64.64 0 00.465-.192.66.66 0 00.191-.465c0-.164-.082-.328-.191-.464-.137-.11-.3-.192-.465-.192a.66.66 0 00-.465.192.64.64 0 00-.191.465c0 .19.054.355.191.464.11.137.274.192.465.192zm2.625-5.25a.66.66 0 00-.465.191.64.64 0 00-.191.465c0 .191.054.355.191.465.11.137.274.191.465.191a.64.64 0 00.465-.191.66.66 0 00.191-.465c0-.164-.082-.328-.191-.465-.137-.11-.3-.191-.465-.191zm3.5 10.062v-.437c0-.055-.027-.082-.082-.137-.055-.055-.082-.082-.137-.082H4.594c-.055 0-.11.027-.164.082-.055.055-.055.082-.055.137v.437c0 .055 0 .11.055.164.054.055.11.055.164.055H8.53c.055 0 .082 0 .137-.055.055-.054.082-.11.082-.164zm0-2.625v-.437c0-.055-.027-.082-.082-.137-.055-.055-.082-.082-.137-.082H4.594c-.055 0-.11.027-.164.082-.055.055-.055.082-.055.137v.437c0 .055 0 .11.055.164.054.055.11.055.164.055H8.53c.055 0 .082 0 .137-.055.055-.054.082-.11.082-.164zm0-2.625V6.22c0-.055-.027-.082-.082-.137C8.613 6.027 8.586 6 8.531 6H4.594c-.055 0-.11.027-.164.082-.055.055-.055.082-.055.137v.437c0 .055 0 .11.055.164.054.055.11.055.164.055H8.53c.055 0 .082 0 .137-.055.055-.054.082-.11.082-.164z"/></symbol>
</svg>