<svg xmlns="http://www.w3.org/2000/svg" viewBox="0 0 43.25 33"><title>myaccount</title>
    <g id="myaccount"><g class="dog"><path class="dog-head-down" d="M8.88,13.6s-3,.83-3.12.89C1.28,16.13,0,10.8,0,10.8L4.12,8.62l.82-2.07,2.83-2L8.15.88s0-1.49,1.11-.47C10.52,1.62,12.78,3.85,14.65,6a2.77,2.77,0,0,1,1,1.84C15.75,9,8.88,13.6,8.88,13.6Z" /><path class="dog-head-up" d="M7.73,12.88s-3.08-.2-3.24-.19C-.28,12.75.28,7.3.28,7.3l4.61-.69L6.35,4.92,9.68,4,11.26.64s.52-1.39,1.2-.07c.78,1.55,2.18,4.41,3.22,7.08Z" /><path class="dog-body" d="M15.68,7.64c1.09,2.78,3.45,4.29,5.92,6.3-.17.27-.23.33-.32.38s-1.52.32-1.52.32-.25,2.46.51,3.6a4.9,4.9,0,0,0,2.29,1.62c.67.49.33,2.08.2,2.69a8.16,8.16,0,0,0,1,6.65.54.54,0,0,1-.1.61,14.77,14.77,0,0,1-1.41,1,13.32,13.32,0,0,1-2.58-3.4l1.42,3.45s.5,2.14-1,2.14h-6s-1.77,0-1.49-1.14A3.56,3.56,0,0,1,16,29.12l-1.35-3c-.5-1.46-1.87-7.19,2.35-8.44h0c-4.06.82-4.71,4.59-3.48,8.72L10.4,31.92A1.93,1.93,0,0,1,8.48,33H4.94c-.84,0-1.39-.29-1.36-1.08A3.55,3.55,0,0,1,7,29.12l3.53-7.95-2.81-8.3Z" /></g><g class="cat"><path class="cat-tail-left" d="M42,23.5c-1.62-3.85-3.4-5.85-5.14-5.79a2.54,2.54,0,0,0-2.24,1.93,1,1,0,1,0,1.88.66c.14-.38.31-.58.42-.59.36,0,1.64.79,3.23,4.58" /><path class="cat-tail-right" d="M42,23.47c-1.53-3.82-1.18-5.29-.92-5.53.08-.07.35-.05.71.13a1,1,0,1,0,.88-1.8,2.53,2.53,0,0,0-3,.21c-1.28,1.18-1.14,3.85.41,7.73" /><path class="cat-body" d="M40.14,24.21c.43,1.06.81,2.49.22,3.28a2.08,2.08,0,0,1-1.32.69c-.6-6.29-5.92-6.69-7.36-8.1A5,5,0,0,1,30,17.46a14.12,14.12,0,0,0-1.34-4,27.87,27.87,0,0,0-3.57-3.34l-.05,2.53S23.45,13,23,13.73c-.39.56-.56,1-1.14,1.27a6.67,6.67,0,0,1-.92.24,2.56,2.56,0,0,0,.2,1.45c.56,1,1.08,1.06,2.13,1.55a2.64,2.64,0,0,1,1,2.14c.09,2.15-1.54,4.1.62,7.65a1.64,1.64,0,0,1-.19,2.08c-.92,1.16-1.76.64-2,1.92-.08.43.61.48.6.47h2.19c.93,0,1.17-1,1.17-1s1.11-4.64,1.11-4.65,1-3.82,5.72-1.5c0,0-4.79-1.83-5.42,2.62-.23,2.24,2.72,3,2.44,3-.55,0-.79,0-1.63,0s-1.51.25-1.66,1.05c-.08.43.61.48.6.47h7.71c1.08,0,3-.48,3.47-2.2a4.31,4.31,0,0,0,3-1.52c.92-1.23.94-3,0-5.22" /></g></g>
</svg>